BenchTwelve Medium-black.ufo
<glyph name="quotesingle" format="1">
  <advance width="750"/>
  <unicode hex="0027"/>
  <outline>
    <contour>
      <point x="334" y="689" type="curve" smooth="yes"/>
      <point x="413" y="689" type="line" smooth="yes"/>
      <point x="456" y="689"/>
      <point x="478" y="722"/>
      <point x="485" y="764" type="curve"/>
      <point x="613" y="1443" type="line"/>
      <point x="614" y="1486"/>
      <point x="581" y="1521"/>
      <point x="538" y="1521" type="curve" smooth="yes"/>
      <point x="207" y="1521" type="line" smooth="yes"/>
      <point x="164" y="1521"/>
      <point x="131" y="1486"/>
      <point x="132" y="1443" type="curve"/>
      <point x="261" y="764" type="line"/>
      <point x="268" y="722"/>
      <point x="291" y="689"/>
    </contour>
  </outline>
</glyph>
<glyph name="parenright" format="1">
  <advance width="1006"/>
  <unicode hex="0029"/>
  <outline>
    <contour>
      <point x="204" y="-143" type="curve" smooth="yes"/>
      <point x="652" y="-97"/>
      <point x="865" y="297"/>
      <point x="865" y="698" type="curve" smooth="yes"/>
      <point x="865" y="1098"/>
      <point x="652" y="1493"/>
      <point x="204" y="1540" type="curve" smooth="yes"/>
      <point x="165" y="1544"/>
      <point x="127" y="1508"/>
      <point x="127" y="1470" type="curve" smooth="yes"/>
      <point x="127" y="1384" type="line" smooth="yes"/>
      <point x="127" y="1315"/>
      <point x="144" y="1297"/>
      <point x="206" y="1266" type="curve" smooth="yes"/>
      <point x="338" y="1200"/>
      <point x="414" y="974"/>
      <point x="414" y="698" type="curve" smooth="yes"/>
      <point x="414" y="423"/>
      <point x="339" y="198"/>
      <point x="206" y="132" type="curve" smooth="yes"/>
      <point x="144" y="102"/>
      <point x="127" y="84"/>
      <point x="127" y="15" type="curve" smooth="yes"/>
      <point x="127" y="-73" type="line" smooth="yes"/>
      <point x="127" y="-111"/>
      <point x="165" y="-147"/>
    </contour>
  </outline>
</glyph>
<glyph name="hyphen" format="1">
  <advance width="1059"/>
  <unicode hex="002D"/>
  <outline>
    <contour>
      <point x="206" y="422" type="curve" smooth="yes"/>
      <point x="853" y="422" type="line" smooth="yes"/>
      <point x="896" y="422"/>
      <point x="927" y="453"/>
      <point x="927" y="496" type="curve" smooth="yes"/>
      <point x="927" y="674" type="line" smooth="yes"/>
      <point x="927" y="717"/>
      <point x="896" y="748"/>
      <point x="853" y="748" type="curve" smooth="yes"/>
      <point x="206" y="748" type="line" smooth="yes"/>
      <point x="163" y="748"/>
      <point x="131" y="717"/>
      <point x="131" y="674" type="curve" smooth="yes"/>
      <point x="131" y="496" type="line" smooth="yes"/>
      <point x="131" y="453"/>
      <point x="163" y="422"/>
    </contour>
  </outline>
</glyph>
<glyph name="one" format="1">
  <advance width="1307"/>
  <unicode hex="0031"/>
  <outline>
    <contour>
      <point x="516" y="0" type="curve" smooth="yes"/>
      <point x="1071" y="0" type="line" smooth="yes"/>
      <point x="1114" y="0"/>
      <point x="1147" y="33"/>
      <point x="1147" y="76" type="curve" smooth="yes"/>
      <point x="1147" y="1363" type="line" smooth="yes"/>
      <point x="1147" y="1406"/>
      <point x="1114" y="1438"/>
      <point x="1071" y="1438" type="curve"/>
      <point x="192" y="1358" type="line"/>
      <point x="149" y="1358"/>
      <point x="117" y="1326"/>
      <point x="117" y="1283" type="curve" smooth="yes"/>
      <point x="117" y="1083" type="line" smooth="yes"/>
      <point x="117" y="1040"/>
      <point x="149" y="1008"/>
      <point x="192" y="1008" type="curve"/>
      <point x="404" y="1028" type="line"/>
      <point x="424" y="1028"/>
      <point x="441" y="1011"/>
      <point x="441" y="991" type="curve" smooth="yes"/>
      <point x="441" y="76" type="line" smooth="yes"/>
      <point x="441" y="33"/>
      <point x="473" y="0"/>
    </contour>
  </outline>
</glyph>
<glyph name="three" format="1">
  <advance width="2208"/>
  <unicode hex="0033"/>
  <outline>
    <contour>
      <point x="1042" y="-40" type="curve" smooth="yes"/>
      <point x="1647" y="-40"/>
      <point x="2062" y="72"/>
      <point x="2062" y="413" type="curve" smooth="yes"/>
      <point x="2062" y="591"/>
      <point x="1955" y="697"/>
      <point x="1746" y="723" type="curve"/>
      <point x="1946" y="743"/>
      <point x="2058" y="844"/>
      <point x="2058" y="1022" type="curve" smooth="yes"/>
      <point x="2058" y="1360"/>
      <point x="1652" y="1474"/>
      <point x="1047" y="1474" type="curve" smooth="yes"/>
      <point x="792" y="1474"/>
      <point x="312" y="1395"/>
      <point x="200" y="1362" type="curve" smooth="yes"/>
      <point x="163" y="1352"/>
      <point x="147" y="1335"/>
      <point x="147" y="1305" type="curve" smooth="yes"/>
      <point x="147" y="1301"/>
      <point x="147" y="1297"/>
      <point x="148" y="1292" type="curve" smooth="yes"/>
      <point x="171" y="1108" type="line" smooth="yes"/>
      <point x="175" y="1077"/>
      <point x="190" y="1064"/>
      <point x="216" y="1064" type="curve" smooth="yes"/>
      <point x="223" y="1064"/>
      <point x="230" y="1065"/>
      <point x="239" y="1067" type="curve" smooth="yes"/>
      <point x="278" y="1074"/>
      <point x="705" y="1165"/>
      <point x="1045" y="1165" type="curve" smooth="yes"/>
      <point x="1172" y="1165"/>
      <point x="1386" y="1161"/>
      <point x="1388" y="1015" type="curve" smooth="yes"/>
      <point x="1391" y="921"/>
      <point x="1355" y="848"/>
      <point x="1124" y="848" type="curve" smooth="yes"/>
      <point x="888" y="848" type="line" smooth="yes"/>
      <point x="856" y="848"/>
      <point x="856" y="819"/>
      <point x="856" y="805" type="curve" smooth="yes"/>
      <point x="856" y="640" type="line" smooth="yes"/>
      <point x="856" y="626"/>
      <point x="856" y="597"/>
      <point x="888" y="597" type="curve" smooth="yes"/>
      <point x="1124" y="597" type="line" smooth="yes"/>
      <point x="1353" y="597"/>
      <point x="1394" y="526"/>
      <point x="1392" y="432" type="curve" smooth="yes"/>
      <point x="1390" y="289"/>
      <point x="1189" y="269"/>
      <point x="1041" y="269" type="curve" smooth="yes"/>
      <point x="707" y="269"/>
      <point x="277" y="360"/>
      <point x="238" y="367" type="curve" smooth="yes"/>
      <point x="229" y="369"/>
      <point x="222" y="370"/>
      <point x="215" y="370" type="curve" smooth="yes"/>
      <point x="189" y="370"/>
      <point x="175" y="357"/>
      <point x="171" y="326" type="curve" smooth="yes"/>
      <point x="148" y="142" type="line" smooth="yes"/>
      <point x="147" y="137"/>
      <point x="147" y="133"/>
      <point x="147" y="129" type="curve" smooth="yes"/>
      <point x="147" y="99"/>
      <point x="163" y="82"/>
      <point x="200" y="72" type="curve" smooth="yes"/>
      <point x="312" y="39"/>
      <point x="778" y="-40"/>
    </contour>
  </outline>
</glyph>
<glyph name="less" format="1">
  <advance width="1289"/>
  <unicode hex="003C"/>
  <outline>
    <contour>
      <point x="1093" y="-89" type="curve" smooth="yes"/>
      <point x="1115" y="-89"/>
      <point x="1135" y="-71"/>
      <point x="1135" y="-44" type="curve" smooth="yes"/>
      <point x="1135" y="292" type="line" smooth="yes"/>
      <point x="1135" y="338"/>
      <point x="1108" y="379"/>
      <point x="1066" y="400" type="curve" smooth="yes"/>
      <point x="531" y="654" type="line" smooth="yes"/>
      <point x="524" y="657"/>
      <point x="521" y="663"/>
      <point x="521" y="669" type="curve" smooth="yes"/>
      <point x="521" y="675"/>
      <point x="524" y="681"/>
      <point x="531" y="685" type="curve" smooth="yes"/>
      <point x="1066" y="943" type="line" smooth="yes"/>
      <point x="1108" y="963"/>
      <point x="1135" y="1003"/>
      <point x="1135" y="1048" type="curve" smooth="yes"/>
      <point x="1135" y="1409" type="line" smooth="yes"/>
      <point x="1135" y="1436"/>
      <point x="1115" y="1455"/>
      <point x="1092" y="1455" type="curve" smooth="yes"/>
      <point x="1083" y="1455"/>
      <point x="1076" y="1453"/>
      <point x="1067" y="1449" type="curve" smooth="yes"/>
      <point x="206" y="986" type="line" smooth="yes"/>
      <point x="165" y="964"/>
      <point x="138" y="921"/>
      <point x="138" y="876" type="curve" smooth="yes"/>
      <point x="138" y="505" type="line" smooth="yes"/>
      <point x="138" y="459"/>
      <point x="164" y="414"/>
      <point x="205" y="392" type="curve" smooth="yes"/>
      <point x="1068" y="-81" type="line" smooth="yes"/>
      <point x="1077" y="-85"/>
      <point x="1086" y="-89"/>
    </contour>
  </outline>
</glyph>
<glyph name="C" format="1">
  <advance width="2475"/>
  <unicode hex="0043"/>
  <outline>
    <contour>
      <point x="1237" y="1438" type="move" name="top"/>
    </contour>
    <contour>
      <point x="1237" y="0" type="move" name="bottom"/>
    </contour>
    <contour>
      <point x="1320" y="-41" type="curve" smooth="yes"/>
      <point x="1754" y="-41"/>
      <point x="2306" y="58"/>
      <point x="2332" y="435" type="curve" smooth="yes"/>
      <point x="2332" y="447"/>
      <point x="2330" y="461"/>
      <point x="2329" y="474" type="curve" smooth="yes"/>
      <point x="2325" y="496"/>
      <point x="2307" y="514"/>
      <point x="2284" y="516" type="curve" smooth="yes"/>
      <point x="2260" y="520"/>
      <point x="1843" y="555"/>
      <point x="1842" y="555" type="curve" smooth="yes"/>
      <point x="1789" y="559"/>
      <point x="1760" y="540"/>
      <point x="1737" y="494" type="curve"/>
      <point x="1679" y="386"/>
      <point x="1558" y="329"/>
      <point x="1320" y="329" type="curve"/>
      <point x="1051" y="334"/>
      <point x="864" y="418"/>
      <point x="864" y="719" type="curve" smooth="yes"/>
      <point x="864" y="1010"/>
      <point x="1049" y="1103"/>
      <point x="1320" y="1108" type="curve"/>
      <point x="1541" y="1108"/>
      <point x="1664" y="1058"/>
      <point x="1730" y="956" type="curve" smooth="yes"/>
      <point x="1760" y="910"/>
      <point x="1791" y="895"/>
      <point x="1844" y="899" type="curve" smooth="yes"/>
      <point x="1844" y="899"/>
      <point x="2280" y="929"/>
      <point x="2306" y="932" type="curve" smooth="yes"/>
      <point x="2312" y="934"/>
      <point x="2318" y="939"/>
      <point x="2319" y="945" type="curve" smooth="yes"/>
      <point x="2319" y="947"/>
      <point x="2318" y="958"/>
      <point x="2318" y="959" type="curve" smooth="yes"/>
      <point x="2271" y="1359"/>
      <point x="1768" y="1475"/>
      <point x="1320" y="1475" type="curve" smooth="yes"/>
      <point x="741" y="1475"/>
      <point x="135" y="1325"/>
      <point x="135" y="719" type="curve" smooth="yes"/>
      <point x="135" y="105"/>
      <point x="741" y="-41"/>
    </contour>
  </outline>
</glyph>
<glyph name="D" format="1">
  <advance width="2421"/>
  <unicode hex="0044"/>
  <outline>
    <contour>
      <point x="1211" y="1438" type="move" name="top"/>
    </contour>
    <contour>
      <point x="1211" y="719" type="move" name="center"/>
    </contour>
    <contour>
      <point x="864" y="346" type="curve" smooth="yes"/>
      <point x="847" y="346"/>
      <point x="828" y="364"/>
      <point x="828" y="381" type="curve" smooth="yes"/>
      <point x="828" y="1063" type="line" smooth="yes"/>
      <point x="828" y="1080"/>
      <point x="846" y="1097"/>
      <point x="863" y="1097" type="curve" smooth="yes"/>
      <point x="917" y="1098"/>
      <point x="1125" y="1099"/>
      <point x="1178" y="1099" type="curve" smooth="yes"/>
      <point x="1406" y="1099"/>
      <point x="1621" y="1047"/>
      <point x="1621" y="728" type="curve" smooth="yes"/>
      <point x="1621" y="384"/>
      <point x="1435" y="346"/>
      <point x="1151" y="346" type="curve" smooth="yes"/>
      <point x="1096" y="346"/>
      <point x="928" y="345"/>
    </contour>
    <contour>
      <point x="235" y="0" type="curve" smooth="yes"/>
      <point x="1218" y="0" type="line" smooth="yes"/>
      <point x="1796" y="0"/>
      <point x="2282" y="31"/>
      <point x="2282" y="731" type="curve" smooth="yes"/>
      <point x="2282" y="1267"/>
      <point x="1832" y="1438"/>
      <point x="1321" y="1438" type="curve" smooth="yes"/>
      <point x="235" y="1438" type="line" smooth="yes"/>
      <point x="192" y="1438"/>
      <point x="159" y="1404"/>
      <point x="159" y="1361" type="curve" smooth="yes"/>
      <point x="159" y="76" type="line" smooth="yes"/>
      <point x="159" y="33"/>
      <point x="192" y="0"/>
    </contour>
  </outline>
</glyph>
<glyph name="H" format="1">
  <advance width="2391"/>
  <unicode hex="0048"/>
  <outline>
    <contour>
      <point x="1196" y="1438" type="move" name="top"/>
    </contour>
    <contour>
      <point x="1196" y="719" type="move" name="center"/>
    </contour>
    <contour>
      <point x="235" y="0" type="curve" smooth="yes"/>
      <point x="736" y="0" type="line" smooth="yes"/>
      <point x="779" y="0"/>
      <point x="811" y="33"/>
      <point x="811" y="76" type="curve" smooth="yes"/>
      <point x="811" y="538" type="line" smooth="yes"/>
      <point x="811" y="555"/>
      <point x="828" y="571"/>
      <point x="845" y="571" type="curve" smooth="yes"/>
      <point x="1534" y="571" type="line" smooth="yes"/>
      <point x="1551" y="571"/>
      <point x="1568" y="554"/>
      <point x="1568" y="537" type="curve" smooth="yes"/>
      <point x="1568" y="76" type="line" smooth="yes"/>
      <point x="1568" y="33"/>
      <point x="1600" y="0"/>
      <point x="1643" y="0" type="curve" smooth="yes"/>
      <point x="2155" y="0" type="line" smooth="yes"/>
      <point x="2198" y="0"/>
      <point x="2231" y="33"/>
      <point x="2231" y="76" type="curve" smooth="yes"/>
      <point x="2231" y="1363" type="line" smooth="yes"/>
      <point x="2231" y="1406"/>
      <point x="2198" y="1438"/>
      <point x="2155" y="1438" type="curve" smooth="yes"/>
      <point x="1645" y="1438" type="line" smooth="yes"/>
      <point x="1602" y="1438"/>
      <point x="1569" y="1406"/>
      <point x="1569" y="1363" type="curve" smooth="yes"/>
      <point x="1569" y="940" type="line" smooth="yes"/>
      <point x="1569" y="923"/>
      <point x="1552" y="906"/>
      <point x="1535" y="906" type="curve" smooth="yes"/>
      <point x="840" y="906" type="line" smooth="yes"/>
      <point x="823" y="906"/>
      <point x="806" y="922"/>
      <point x="806" y="939" type="curve" smooth="yes"/>
      <point x="806" y="1363" type="line" smooth="yes"/>
      <point x="806" y="1406"/>
      <point x="774" y="1438"/>
      <point x="731" y="1438" type="curve" smooth="yes"/>
      <point x="235" y="1438" type="line" smooth="yes"/>
      <point x="192" y="1438"/>
      <point x="159" y="1406"/>
      <point x="159" y="1363" type="curve" smooth="yes"/>
      <point x="159" y="76" type="line" smooth="yes"/>
      <point x="159" y="33"/>
      <point x="192" y="0"/>
    </contour>
  </outline>
</glyph>
<glyph name="L" format="1">
  <advance width="1997"/>
  <unicode hex="004C"/>
  <outline>
    <contour>
      <point x="999" y="1438" type="move" name="top"/>
    </contour>
    <contour>
      <point x="999" y="0" type="move" name="bottom"/>
    </contour>
    <contour>
      <point x="235" y="0" type="curve" smooth="yes"/>
      <point x="1798" y="0" type="line" smooth="yes"/>
      <point x="1841" y="0"/>
      <point x="1874" y="33"/>
      <point x="1874" y="76" type="curve" smooth="yes"/>
      <point x="1874" y="274" type="line" smooth="yes"/>
      <point x="1874" y="317"/>
      <point x="1841" y="350"/>
      <point x="1798" y="350" type="curve" smooth="yes"/>
      <point x="902" y="350" type="line" smooth="yes"/>
      <point x="882" y="350"/>
      <point x="865" y="367"/>
      <point x="865" y="387" type="curve" smooth="yes"/>
      <point x="865" y="1363" type="line" smooth="yes"/>
      <point x="865" y="1406"/>
      <point x="833" y="1438"/>
      <point x="790" y="1438" type="curve" smooth="yes"/>
      <point x="235" y="1438" type="line" smooth="yes"/>
      <point x="192" y="1438"/>
      <point x="159" y="1406"/>
      <point x="159" y="1363" type="curve" smooth="yes"/>
      <point x="159" y="76" type="line" smooth="yes"/>
      <point x="159" y="33"/>
      <point x="192" y="0"/>
    </contour>
  </outline>
</glyph>
<glyph name="O" format="1">
  <advance width="2667"/>
  <unicode hex="004F"/>
  <outline>
    <contour>
      <point x="1334" y="1438" type="move" name="top"/>
    </contour>
    <contour>
      <point x="1333" y="322" type="curve" smooth="yes"/>
      <point x="1074" y="322"/>
      <point x="898" y="407"/>
      <point x="898" y="722" type="curve" smooth="yes"/>
      <point x="898" y="1025"/>
      <point x="1072" y="1118"/>
      <point x="1333" y="1118" type="curve" smooth="yes"/>
      <point x="1593" y="1118"/>
      <point x="1768" y="1025"/>
      <point x="1768" y="722" type="curve" smooth="yes"/>
      <point x="1768" y="407"/>
      <point x="1591" y="322"/>
    </contour>
    <contour>
      <point x="1333" y="-41" type="curve" smooth="yes"/>
      <point x="1853" y="-41"/>
      <point x="2532" y="77"/>
      <point x="2532" y="722" type="curve" smooth="yes"/>
      <point x="2532" y="1319"/>
      <point x="1853" y="1475"/>
      <point x="1333" y="1475" type="curve" smooth="yes"/>
      <point x="813" y="1475"/>
      <point x="134" y="1319"/>
      <point x="134" y="722" type="curve" smooth="yes"/>
      <point x="134" y="77"/>
      <point x="813" y="-41"/>
    </contour>
  </outline>
</glyph>
<glyph name="P" format="1">
  <advance width="2376"/>
  <unicode hex="0050"/>
  <outline>
    <contour>
      <point x="235" y="0" type="curve" smooth="yes"/>
      <point x="751" y="0" type="line" smooth="yes"/>
      <point x="794" y="0"/>
      <point x="827" y="33"/>
      <point x="827" y="76" type="curve" smooth="yes"/>
      <point x="827" y="417" type="line" smooth="yes"/>
      <point x="827" y="434"/>
      <point x="844" y="452"/>
      <point x="861" y="452" type="curve" smooth="yes"/>
      <point x="1001" y="453"/>
      <point x="1224" y="452"/>
      <point x="1353" y="453" type="curve" smooth="yes"/>
      <point x="1856" y="458"/>
      <point x="2241" y="506"/>
      <point x="2241" y="935" type="curve" smooth="yes"/>
      <point x="2241" y="1380"/>
      <point x="1872" y="1438"/>
      <point x="1338" y="1438" type="curve" smooth="yes"/>
      <point x="1005" y="1438"/>
      <point x="567" y="1436"/>
      <point x="235" y="1436" type="curve" smooth="yes"/>
      <point x="192" y="1436"/>
      <point x="159" y="1403"/>
      <point x="159" y="1361" type="curve" smooth="yes"/>
      <point x="159" y="76" type="line" smooth="yes"/>
      <point x="159" y="33"/>
      <point x="192" y="0"/>
    </contour>
    <contour>
      <point x="861" y="740" type="line"/>
      <point x="844" y="740"/>
      <point x="827" y="758"/>
      <point x="827" y="775" type="curve" smooth="yes"/>
      <point x="827" y="1056" type="line" smooth="yes"/>
      <point x="827" y="1073"/>
      <point x="844" y="1090"/>
      <point x="861" y="1090" type="curve" smooth="yes"/>
      <point x="1178" y="1090" type="line" smooth="yes"/>
      <point x="1341" y="1090"/>
      <point x="1555" y="1116"/>
      <point x="1555" y="919" type="curve" smooth="yes"/>
      <point x="1555" y="763"/>
      <point x="1443" y="740"/>
      <point x="1293" y="740" type="curve" smooth="yes"/>
    </contour>
  </outline>
</glyph>
<glyph name="Q" format="1">
  <advance width="2667"/>
  <unicode hex="0051"/>
  <outline>
    <contour>
      <point x="1645" y="-513" type="curve"/>
      <point x="1914" y="-407" type="line"/>
      <point x="1951" y="-387"/>
      <point x="1966" y="-343"/>
      <point x="1943" y="-305" type="curve"/>
      <point x="1674" y="182" type="line"/>
      <point x="1223" y="92" type="line"/>
      <point x="1541" y="-485" type="line"/>
      <point x="1563" y="-522"/>
      <point x="1606" y="-533"/>
    </contour>
    <contour>
      <point x="1333" y="324" type="curve" smooth="yes"/>
      <point x="1074" y="324"/>
      <point x="898" y="409"/>
      <point x="898" y="723" type="curve" smooth="yes"/>
      <point x="898" y="1026"/>
      <point x="1072" y="1120"/>
      <point x="1333" y="1120" type="curve" smooth="yes"/>
      <point x="1593" y="1120"/>
      <point x="1768" y="1026"/>
      <point x="1768" y="723" type="curve" smooth="yes"/>
      <point x="1768" y="409"/>
      <point x="1591" y="324"/>
    </contour>
    <contour>
      <point x="1333" y="-39" type="curve" smooth="yes"/>
      <point x="1853" y="-39"/>
      <point x="2532" y="79"/>
      <point x="2532" y="723" type="curve" smooth="yes"/>
      <point x="2532" y="1321"/>
      <point x="1853" y="1477"/>
      <point x="1333" y="1477" type="curve" smooth="yes"/>
      <point x="813" y="1477"/>
      <point x="134" y="1321"/>
      <point x="134" y="723" type="curve" smooth="yes"/>
      <point x="134" y="79"/>
      <point x="813" y="-39"/>
    </contour>
  </outline>
</glyph>
<glyph name="V" format="1">
  <advance width="2340"/>
  <unicode hex="0056"/>
  <outline>
    <contour>
      <point x="915" y="0" type="curve" smooth="yes"/>
      <point x="1446" y="0" type="line" smooth="yes"/>
      <point x="1492" y="1"/>
      <point x="1535" y="27"/>
      <point x="1556" y="67" type="curve" smooth="yes"/>
      <point x="2260" y="1371" type="line" smooth="yes"/>
      <point x="2277" y="1403"/>
      <point x="2256" y="1438"/>
      <point x="2220" y="1438" type="curve" smooth="yes"/>
      <point x="1757" y="1438" type="line" smooth="yes"/>
      <point x="1711" y="1438"/>
      <point x="1667" y="1412"/>
      <point x="1645" y="1371" type="curve" smooth="yes"/>
      <point x="1208" y="550" type="line"/>
      <point x="765" y="1371" type="line" smooth="yes"/>
      <point x="742" y="1412"/>
      <point x="699" y="1438"/>
      <point x="653" y="1438" type="curve" smooth="yes"/>
      <point x="117" y="1438" type="line" smooth="yes"/>
      <point x="81" y="1438"/>
      <point x="61" y="1403"/>
      <point x="79" y="1371" type="curve" smooth="yes"/>
      <point x="803" y="67" type="line" smooth="yes"/>
      <point x="825" y="27"/>
      <point x="869" y="1"/>
    </contour>
  </outline>
</glyph>
<glyph name="bracketleft" format="1">
  <advance width="1384"/>
  <unicode hex="005B"/>
  <outline>
    <contour>
      <point x="238" y="-184" type="curve" smooth="yes"/>
      <point x="1179" y="-184" type="line" smooth="yes"/>
      <point x="1222" y="-184"/>
      <point x="1254" y="-153"/>
      <point x="1254" y="-110" type="curve" smooth="yes"/>
      <point x="1254" y="92" type="line" smooth="yes"/>
      <point x="1254" y="135"/>
      <point x="1222" y="166"/>
      <point x="1179" y="166" type="curve" smooth="yes"/>
      <point x="802" y="166" type="line" smooth="yes"/>
      <point x="782" y="166"/>
      <point x="766" y="182"/>
      <point x="766" y="202" type="curve" smooth="yes"/>
      <point x="766" y="1241" type="line" smooth="yes"/>
      <point x="766" y="1261"/>
      <point x="782" y="1276"/>
      <point x="802" y="1276" type="curve" smooth="yes"/>
      <point x="1179" y="1276" type="line" smooth="yes"/>
      <point x="1222" y="1276"/>
      <point x="1254" y="1307"/>
      <point x="1254" y="1350" type="curve" smooth="yes"/>
      <point x="1254" y="1554" type="line" smooth="yes"/>
      <point x="1254" y="1597"/>
      <point x="1222" y="1628"/>
      <point x="1179" y="1628" type="curve" smooth="yes"/>
      <point x="238" y="1628" type="line" smooth="yes"/>
      <point x="195" y="1628"/>
      <point x="161" y="1594"/>
      <point x="161" y="1551" type="curve" smooth="yes"/>
      <point x="161" y="-107" type="line" smooth="yes"/>
      <point x="161" y="-150"/>
      <point x="195" y="-184"/>
    </contour>
  </outline>
</glyph>
<glyph name="c" format="1">
  <advance width="1798"/>
  <unicode hex="0063"/>
  <outline>
    <contour>
      <point x="899" y="1006" type="move" name="top"/>
    </contour>
    <contour>
      <point x="899" y="0" type="move" name="bottom"/>
    </contour>
    <contour>
      <point x="1007" y="-41" type="curve" smooth="yes"/>
      <point x="1215" y="-41"/>
      <point x="1435" y="-6"/>
      <point x="1596" y="49" type="curve"/>
      <point x="1636" y="62"/>
      <point x="1655" y="102"/>
      <point x="1642" y="139" type="curve" smooth="yes"/>
      <point x="1638" y="149"/>
      <point x="1605" y="246"/>
      <point x="1602" y="253" type="curve" smooth="yes"/>
      <point x="1589" y="292"/>
      <point x="1552" y="310"/>
      <point x="1510" y="297" type="curve" smooth="yes"/>
      <point x="1405" y="265"/>
      <point x="1250" y="231"/>
      <point x="1104" y="231" type="curve" smooth="yes"/>
      <point x="888" y="231"/>
      <point x="700" y="300"/>
      <point x="700" y="509" type="curve" smooth="yes"/>
      <point x="700" y="710"/>
      <point x="878" y="778"/>
      <point x="1075" y="778" type="curve" smooth="yes"/>
      <point x="1228" y="778"/>
      <point x="1387" y="738"/>
      <point x="1500" y="699" type="curve" smooth="yes"/>
      <point x="1539" y="686"/>
      <point x="1579" y="699"/>
      <point x="1596" y="741" type="curve" smooth="yes"/>
      <point x="1608" y="775"/>
      <point x="1624" y="818"/>
      <point x="1637" y="852" type="curve" smooth="yes"/>
      <point x="1651" y="888"/>
      <point x="1631" y="933"/>
      <point x="1593" y="949" type="curve" smooth="yes"/>
      <point x="1437" y="1013"/>
      <point x="1215" y="1053"/>
      <point x="996" y="1053" type="curve" smooth="yes"/>
      <point x="574" y="1053"/>
      <point x="130" y="910"/>
      <point x="130" y="509" type="curve" smooth="yes"/>
      <point x="130" y="96"/>
      <point x="573" y="-41"/>
    </contour>
  </outline>
</glyph>
<glyph name="m" format="1">
  <advance width="2960"/>
  <unicode hex="006D"/>
  <outline>
    <contour>
      <point x="229" y="0" type="curve" smooth="yes"/>
      <point x="627" y="0" type="line" smooth="yes"/>
      <point x="670" y="0"/>
      <point x="702" y="33"/>
      <point x="702" y="76" type="curve" smooth="yes"/>
      <point x="702" y="420" type="line" smooth="yes"/>
      <point x="702" y="598"/>
      <point x="762" y="781"/>
      <point x="967" y="781" type="curve" smooth="yes"/>
      <point x="1117" y="781"/>
      <point x="1203" y="658"/>
      <point x="1203" y="513" type="curve" smooth="yes"/>
      <point x="1203" y="76" type="line" smooth="yes"/>
      <point x="1203" y="33"/>
      <point x="1235" y="0"/>
      <point x="1278" y="0" type="curve" smooth="yes"/>
      <point x="1679" y="0" type="line" smooth="yes"/>
      <point x="1722" y="0"/>
      <point x="1755" y="33"/>
      <point x="1755" y="76" type="curve" smooth="yes"/>
      <point x="1755" y="307" type="line" smooth="yes"/>
      <point x="1755" y="320"/>
      <point x="1755" y="485"/>
      <point x="1755" y="485" type="curve" smooth="yes"/>
      <point x="1755" y="729"/>
      <point x="1893" y="781"/>
      <point x="2010" y="781" type="curve" smooth="yes"/>
      <point x="2174" y="781"/>
      <point x="2254" y="703"/>
      <point x="2254" y="513" type="curve" smooth="yes"/>
      <point x="2254" y="76" type="line" smooth="yes"/>
      <point x="2254" y="33"/>
      <point x="2287" y="0"/>
      <point x="2330" y="0" type="curve" smooth="yes"/>
      <point x="2743" y="0" type="line" smooth="yes"/>
      <point x="2786" y="0"/>
      <point x="2818" y="33"/>
      <point x="2818" y="76" type="curve" smooth="yes"/>
      <point x="2818" y="518" type="line" smooth="yes"/>
      <point x="2818" y="877"/>
      <point x="2502" y="1053"/>
      <point x="2158" y="1053" type="curve" smooth="yes"/>
      <point x="1970" y="1053"/>
      <point x="1784" y="993"/>
      <point x="1660" y="874" type="curve" smooth="yes"/>
      <point x="1650" y="864"/>
      <point x="1642" y="861"/>
      <point x="1633" y="861" type="curve" smooth="yes"/>
      <point x="1624" y="861"/>
      <point x="1615" y="865"/>
      <point x="1607" y="873" type="curve" smooth="yes"/>
      <point x="1487" y="994"/>
      <point x="1302" y="1053"/>
      <point x="1101" y="1053" type="curve" smooth="yes"/>
      <point x="884" y="1053"/>
      <point x="674" y="973"/>
      <point x="556" y="813" type="curve" smooth="yes"/>
      <point x="550" y="805"/>
      <point x="544" y="802"/>
      <point x="536" y="802" type="curve" smooth="yes"/>
      <point x="528" y="802"/>
      <point x="521" y="806"/>
      <point x="516" y="814" type="curve" smooth="yes"/>
      <point x="438" y="942" type="line" smooth="yes"/>
      <point x="414" y="983"/>
      <point x="371" y="1006"/>
      <point x="324" y="1006" type="curve" smooth="yes"/>
      <point x="227" y="1006" type="line" smooth="yes"/>
      <point x="184" y="1006"/>
      <point x="153" y="972"/>
      <point x="153" y="929" type="curve" smooth="yes"/>
      <point x="153" y="76" type="line" smooth="yes"/>
      <point x="153" y="33"/>
      <point x="186" y="0"/>
    </contour>
  </outline>
</glyph>
<glyph name="n" format="1">
  <advance width="2024"/>
  <unicode hex="006E"/>
  <outline>
    <contour>
      <point x="1013" y="1006" type="move" name="top"/>
    </contour>
    <contour>
      <point x="1013" y="0" type="move" name="bottom"/>
    </contour>
    <contour>
      <point x="229" y="0" type="curve" smooth="yes"/>
      <point x="627" y="0" type="line" smooth="yes"/>
      <point x="670" y="0"/>
      <point x="702" y="33"/>
      <point x="702" y="76" type="curve" smooth="yes"/>
      <point x="702" y="513" type="line" smooth="yes"/>
      <point x="702" y="646"/>
      <point x="822" y="781"/>
      <point x="1019" y="781" type="curve" smooth="yes"/>
      <point x="1205" y="781"/>
      <point x="1321" y="658"/>
      <point x="1321" y="513" type="curve" smooth="yes"/>
      <point x="1321" y="76" type="line" smooth="yes"/>
      <point x="1321" y="33"/>
      <point x="1353" y="0"/>
      <point x="1396" y="0" type="curve" smooth="yes"/>
      <point x="1806" y="0" type="line" smooth="yes"/>
      <point x="1849" y="0"/>
      <point x="1881" y="33"/>
      <point x="1881" y="76" type="curve" smooth="yes"/>
      <point x="1881" y="518" type="line" smooth="yes"/>
      <point x="1881" y="881"/>
      <point x="1593" y="1053"/>
      <point x="1161" y="1053" type="curve" smooth="yes"/>
      <point x="924" y="1053"/>
      <point x="687" y="973"/>
      <point x="557" y="812" type="curve" smooth="yes"/>
      <point x="551" y="805"/>
      <point x="544" y="801"/>
      <point x="536" y="801" type="curve" smooth="yes"/>
      <point x="528" y="801"/>
      <point x="521" y="806"/>
      <point x="516" y="814" type="curve" smooth="yes"/>
      <point x="438" y="942" type="line" smooth="yes"/>
      <point x="414" y="983"/>
      <point x="371" y="1006"/>
      <point x="324" y="1006" type="curve" smooth="yes"/>
      <point x="227" y="1006" type="line" smooth="yes"/>
      <point x="184" y="1006"/>
      <point x="153" y="972"/>
      <point x="153" y="929" type="curve" smooth="yes"/>
      <point x="153" y="76" type="line" smooth="yes"/>
      <point x="153" y="33"/>
      <point x="186" y="0"/>
    </contour>
  </outline>
</glyph>
<glyph name="o" format="1">
  <advance width="2002"/>
  <unicode hex="006F"/>
  <outline>
    <contour>
      <point x="1001" y="1006" type="move" name="top"/>
    </contour>
    <contour>
      <point x="1001" y="215" type="curve" smooth="yes"/>
      <point x="800" y="215"/>
      <point x="678" y="308"/>
      <point x="678" y="507" type="curve" smooth="yes"/>
      <point x="678" y="681"/>
      <point x="798" y="798"/>
      <point x="1001" y="798" type="curve" smooth="yes"/>
      <point x="1204" y="798"/>
      <point x="1324" y="681"/>
      <point x="1324" y="507" type="curve" smooth="yes"/>
      <point x="1324" y="308"/>
      <point x="1201" y="215"/>
    </contour>
    <contour>
      <point x="1001" y="-41" type="curve" smooth="yes"/>
      <point x="1373" y="-41"/>
      <point x="1870" y="16"/>
      <point x="1870" y="507" type="curve" smooth="yes"/>
      <point x="1870" y="992"/>
      <point x="1348" y="1053"/>
      <point x="1001" y="1053" type="curve" smooth="yes"/>
      <point x="654" y="1053"/>
      <point x="132" y="992"/>
      <point x="132" y="507" type="curve" smooth="yes"/>
      <point x="132" y="16"/>
      <point x="629" y="-41"/>
    </contour>
  </outline>
</glyph>
<glyph name="u" format="1">
  <advance width="2030"/>
  <unicode hex="0075"/>
  <outline>
    <contour>
      <point x="1015" y="1006" type="move" name="top"/>
    </contour>
    <contour>
      <point x="1827" y="10" type="move" name="ogonek"/>
    </contour>
    <contour>
      <point x="867" y="-42" type="curve" smooth="yes"/>
      <point x="1104" y="-42"/>
      <point x="1342" y="38"/>
      <point x="1472" y="198" type="curve" smooth="yes"/>
      <point x="1478" y="205"/>
      <point x="1485" y="210"/>
      <point x="1493" y="210" type="curve" smooth="yes"/>
      <point x="1501" y="210"/>
      <point x="1508" y="205"/>
      <point x="1513" y="197" type="curve" smooth="yes"/>
      <point x="1593" y="64" type="line" smooth="yes"/>
      <point x="1616" y="24"/>
      <point x="1659" y="0"/>
      <point x="1706" y="0" type="curve" smooth="yes"/>
      <point x="1803" y="0" type="line" smooth="yes"/>
      <point x="1846" y="0"/>
      <point x="1877" y="34"/>
      <point x="1877" y="77" type="curve" smooth="yes"/>
      <point x="1877" y="941" type="line" smooth="yes"/>
      <point x="1877" y="984"/>
      <point x="1844" y="1016"/>
      <point x="1801" y="1016" type="curve" smooth="yes"/>
      <point x="1403" y="1016" type="line" smooth="yes"/>
      <point x="1360" y="1016"/>
      <point x="1328" y="984"/>
      <point x="1328" y="941" type="curve" smooth="yes"/>
      <point x="1328" y="499" type="line" smooth="yes"/>
      <point x="1328" y="366"/>
      <point x="1206" y="231"/>
      <point x="1010" y="231" type="curve" smooth="yes"/>
      <point x="823" y="231"/>
      <point x="719" y="354"/>
      <point x="719" y="499" type="curve" smooth="yes"/>
      <point x="719" y="941" type="line" smooth="yes"/>
      <point x="719" y="984"/>
      <point x="687" y="1016"/>
      <point x="644" y="1016" type="curve" smooth="yes"/>
      <point x="221" y="1016" type="line" smooth="yes"/>
      <point x="178" y="1016"/>
      <point x="145" y="984"/>
      <point x="145" y="941" type="curve" smooth="yes"/>
      <point x="145" y="493" type="line" smooth="yes"/>
      <point x="145" y="131"/>
      <point x="497" y="-42"/>
    </contour>
  </outline>
</glyph>
<glyph name="y" format="1">
  <advance width="1844"/>
  <unicode hex="0079"/>
  <outline>
    <contour>
      <point x="921" y="1006" type="move" name="top"/>
    </contour>
    <contour>
      <point x="610" y="-657" type="curve" smooth="yes"/>
      <point x="917" y="-657"/>
      <point x="1052" y="-508"/>
      <point x="1162" y="-269" type="curve" smooth="yes"/>
      <point x="1724" y="936" type="line" smooth="yes"/>
      <point x="1728" y="943"/>
      <point x="1729" y="950"/>
      <point x="1729" y="957" type="curve" smooth="yes"/>
      <point x="1729" y="983"/>
      <point x="1708" y="1006"/>
      <point x="1679" y="1006" type="curve" smooth="yes"/>
      <point x="1342" y="1006" type="line" smooth="yes"/>
      <point x="1296" y="1006"/>
      <point x="1256" y="979"/>
      <point x="1239" y="934" type="curve" smooth="yes"/>
      <point x="1239" y="934"/>
      <point x="1029" y="397"/>
      <point x="1026" y="390" type="curve" smooth="yes"/>
      <point x="1022" y="381"/>
      <point x="1016" y="377"/>
      <point x="1010" y="377" type="curve" smooth="yes"/>
      <point x="1003" y="377"/>
      <point x="997" y="381"/>
      <point x="995" y="387" type="curve" smooth="yes"/>
      <point x="712" y="937" type="line" smooth="yes"/>
      <point x="692" y="980"/>
      <point x="651" y="1006"/>
      <point x="606" y="1006" type="curve" smooth="yes"/>
      <point x="150" y="1006" type="line" smooth="yes"/>
      <point x="124" y="1006"/>
      <point x="106" y="987"/>
      <point x="106" y="964" type="curve" smooth="yes"/>
      <point x="106" y="957"/>
      <point x="108" y="948"/>
      <point x="113" y="940" type="curve" smooth="yes"/>
      <point x="737" y="-113" type="line" smooth="yes"/>
      <point x="756" y="-146"/>
      <point x="795" y="-207"/>
      <point x="795" y="-233" type="curve" smooth="yes"/>
      <point x="790" y="-281"/>
      <point x="773" y="-311"/>
      <point x="752" y="-326" type="curve" smooth="yes"/>
      <point x="714" y="-365"/>
      <point x="659" y="-371"/>
      <point x="622" y="-371" type="curve" smooth="yes"/>
      <point x="604" y="-371" type="line" smooth="yes"/>
      <point x="573" y="-371"/>
      <point x="473" y="-361"/>
      <point x="422" y="-344" type="curve" smooth="yes"/>
      <point x="415" y="-342"/>
      <point x="407" y="-340"/>
      <point x="400" y="-340" type="curve" smooth="yes"/>
      <point x="375" y="-340"/>
      <point x="349" y="-352"/>
      <point x="339" y="-375" type="curve" smooth="yes"/>
      <point x="287" y="-498" type="line" smooth="yes"/>
      <point x="282" y="-510"/>
      <point x="280" y="-522"/>
      <point x="280" y="-534" type="curve" smooth="yes"/>
      <point x="280" y="-563"/>
      <point x="291" y="-586"/>
      <point x="311" y="-596" type="curve" smooth="yes"/>
      <point x="389" y="-638"/>
      <point x="494" y="-657"/>
    </contour>
  </outline>
</glyph>
<glyph name="bar" format="1">
  <advance width="622"/>
  <unicode hex="007C"/>
  <outline>
    <contour>
      <point x="238" y="-150" type="curve" smooth="yes"/>
      <point x="384" y="-150" type="line" smooth="yes"/>
      <point x="427" y="-150"/>
      <point x="461" y="-119"/>
      <point x="461" y="-76" type="curve" smooth="yes"/>
      <point x="461" y="1481" type="line" smooth="yes"/>
      <point x="461" y="1524"/>
      <point x="427" y="1555"/>
      <point x="384" y="1555" type="curve" smooth="yes"/>
      <point x="238" y="1555" type="line" smooth="yes"/>
      <point x="195" y="1555"/>
      <point x="161" y="1524"/>
      <point x="161" y="1481" type="curve" smooth="yes"/>
      <point x="161" y="-76" type="line" smooth="yes"/>
      <point x="161" y="-119"/>
      <point x="195" y="-150"/>
    </contour>
  </outline>
</glyph>
<glyph name="braceright" format="1">
  <advance width="1175"/>
  <unicode hex="007D"/>
  <outline>
    <contour>
      <point x="206" y="-123" type="curve" smooth="yes"/>
      <point x="443" y="-123" type="line" smooth="yes"/>
      <point x="680" y="-123"/>
      <point x="739" y="21"/>
      <point x="770" y="192" type="curve" smooth="yes"/>
      <point x="799" y="363"/>
      <point x="818" y="502"/>
      <point x="923" y="554" type="curve" smooth="yes"/>
      <point x="934" y="560"/>
      <point x="955" y="566"/>
      <point x="968" y="569" type="curve" smooth="yes"/>
      <point x="1024" y="583"/>
      <point x="1046" y="613"/>
      <point x="1046" y="710" type="curve" smooth="yes"/>
      <point x="1046" y="797"/>
      <point x="1024" y="837"/>
      <point x="968" y="851" type="curve" smooth="yes"/>
      <point x="955" y="854"/>
      <point x="934" y="860"/>
      <point x="923" y="866" type="curve" smooth="yes"/>
      <point x="818" y="918"/>
      <point x="799" y="1057"/>
      <point x="770" y="1228" type="curve" smooth="yes"/>
      <point x="739" y="1399"/>
      <point x="680" y="1543"/>
      <point x="443" y="1543" type="curve" smooth="yes"/>
      <point x="206" y="1543" type="line" smooth="yes"/>
      <point x="164" y="1543"/>
      <point x="129" y="1511"/>
      <point x="129" y="1469" type="curve" smooth="yes"/>
      <point x="129" y="1368" type="line" smooth="yes"/>
      <point x="129" y="1316"/>
      <point x="154" y="1288"/>
      <point x="205" y="1279" type="curve" smooth="yes"/>
      <point x="330" y="1255"/>
      <point x="350" y="1241"/>
      <point x="350" y="1110" type="curve" smooth="yes"/>
      <point x="350" y="1008" type="line" smooth="yes"/>
      <point x="350" y="898"/>
      <point x="403" y="766"/>
      <point x="541" y="725" type="curve" smooth="yes"/>
      <point x="548" y="723"/>
      <point x="551" y="716"/>
      <point x="551" y="710" type="curve" smooth="yes"/>
      <point x="551" y="704"/>
      <point x="548" y="697"/>
      <point x="541" y="695" type="curve" smooth="yes"/>
      <point x="397" y="658"/>
      <point x="350" y="524"/>
      <point x="350" y="412" type="curve" smooth="yes"/>
      <point x="350" y="310" type="line" smooth="yes"/>
      <point x="350" y="181"/>
      <point x="330" y="165"/>
      <point x="205" y="141" type="curve" smooth="yes"/>
      <point x="154" y="132"/>
      <point x="129" y="104"/>
      <point x="129" y="52" type="curve" smooth="yes"/>
      <point x="129" y="-49" type="line" smooth="yes"/>
      <point x="129" y="-91"/>
      <point x="164" y="-123"/>
    </contour>
  </outline>
</glyph>
<glyph name="cent" format="1">
  <advance width="1765"/>
  <unicode hex="00A2"/>
  <outline>
    <contour>
      <point x="1002" y="-204" type="curve" smooth="yes"/>
      <point x="1055" y="-204" type="line" smooth="yes"/>
      <point x="1098" y="-204"/>
      <point x="1122" y="-190"/>
      <point x="1122" y="-147" type="curve" smooth="yes"/>
      <point x="1122" y="-3" type="line"/>
      <point x="1282" y="8"/>
      <point x="1439" y="38"/>
      <point x="1563" y="77" type="curve" smooth="yes"/>
      <point x="1602" y="88"/>
      <point x="1621" y="128"/>
      <point x="1609" y="162" type="curve" smooth="yes"/>
      <point x="1596" y="197"/>
      <point x="1583" y="233"/>
      <point x="1572" y="266" type="curve" smooth="yes"/>
      <point x="1559" y="302"/>
      <point x="1521" y="319"/>
      <point x="1480" y="307" type="curve" smooth="yes"/>
      <point x="1387" y="280"/>
      <point x="1253" y="251"/>
      <point x="1122" y="245" type="curve"/>
      <point x="1122" y="756" type="line"/>
      <point x="1252" y="747"/>
      <point x="1377" y="715"/>
      <point x="1470" y="683" type="curve" smooth="yes"/>
      <point x="1509" y="671"/>
      <point x="1548" y="684"/>
      <point x="1564" y="723" type="curve"/>
      <point x="1576" y="753"/>
      <point x="1592" y="794"/>
      <point x="1605" y="825" type="curve" smooth="yes"/>
      <point x="1619" y="859"/>
      <point x="1599" y="901"/>
      <point x="1562" y="916" type="curve" smooth="yes"/>
      <point x="1443" y="963"/>
      <point x="1285" y="995"/>
      <point x="1122" y="1007" type="curve"/>
      <point x="1122" y="1214" type="line" smooth="yes"/>
      <point x="1122" y="1257"/>
      <point x="1098" y="1271"/>
      <point x="1055" y="1271" type="curve" smooth="yes"/>
      <point x="1002" y="1271" type="line" smooth="yes"/>
      <point x="959" y="1271"/>
      <point x="935" y="1257"/>
      <point x="935" y="1214" type="curve" smooth="yes"/>
      <point x="935" y="1012" type="line"/>
      <point x="535" y="1002"/>
      <point x="130" y="865"/>
      <point x="130" y="506" type="curve" smooth="yes"/>
      <point x="130" y="138"/>
      <point x="527" y="6"/>
      <point x="935" y="-5" type="curve"/>
      <point x="935" y="-147" type="line" smooth="yes"/>
      <point x="935" y="-190"/>
      <point x="959" y="-204"/>
    </contour>
    <contour>
      <point x="935" y="257" type="line"/>
      <point x="793" y="284"/>
      <point x="687" y="359"/>
      <point x="687" y="506" type="curve" smooth="yes"/>
      <point x="687" y="654"/>
      <point x="796" y="726"/>
      <point x="935" y="749" type="curve"/>
    </contour>
  </outline>
</glyph>
<glyph name="currency" format="1">
  <advance width="1362"/>
  <unicode hex="00A4"/>
  <outline>
    <contour>
      <point x="680" y="426" type="curve" smooth="yes"/>
      <point x="814" y="426"/>
      <point x="919" y="459"/>
      <point x="1005" y="515" type="curve"/>
      <point x="1036" y="484" type="line" smooth="yes"/>
      <point x="1056" y="463"/>
      <point x="1074" y="445"/>
      <point x="1093" y="445" type="curve" smooth="yes"/>
      <point x="1101" y="445"/>
      <point x="1109" y="449"/>
      <point x="1118" y="457" type="curve" smooth="yes"/>
      <point x="1150" y="490" type="line" smooth="yes"/>
      <point x="1160" y="500"/>
      <point x="1164" y="509"/>
      <point x="1164" y="518" type="curve" smooth="yes"/>
      <point x="1164" y="537"/>
      <point x="1147" y="554"/>
      <point x="1126" y="575" type="curve" smooth="yes"/>
      <point x="1102" y="599" type="line"/>
      <point x="1179" y="689"/>
      <point x="1219" y="805"/>
      <point x="1219" y="931" type="curve" smooth="yes"/>
      <point x="1219" y="1059"/>
      <point x="1178" y="1177"/>
      <point x="1099" y="1268" type="curve"/>
      <point x="1126" y="1295" type="line" smooth="yes"/>
      <point x="1147" y="1316"/>
      <point x="1165" y="1334"/>
      <point x="1165" y="1352" type="curve" smooth="yes"/>
      <point x="1165" y="1360"/>
      <point x="1161" y="1368"/>
      <point x="1153" y="1377" type="curve" smooth="yes"/>
      <point x="1120" y="1409" type="line" smooth="yes"/>
      <point x="1110" y="1419"/>
      <point x="1101" y="1423"/>
      <point x="1092" y="1423" type="curve" smooth="yes"/>
      <point x="1073" y="1423"/>
      <point x="1056" y="1406"/>
      <point x="1035" y="1385" type="curve" smooth="yes"/>
      <point x="1002" y="1352" type="line"/>
      <point x="917" y="1407"/>
      <point x="812" y="1440"/>
      <point x="680" y="1440" type="curve" smooth="yes"/>
      <point x="548" y="1440"/>
      <point x="443" y="1407"/>
      <point x="358" y="1352" type="curve"/>
      <point x="324" y="1386" type="line" smooth="yes"/>
      <point x="304" y="1406"/>
      <point x="287" y="1423"/>
      <point x="268" y="1423" type="curve" smooth="yes"/>
      <point x="259" y="1423"/>
      <point x="249" y="1419"/>
      <point x="239" y="1409" type="curve" smooth="yes"/>
      <point x="207" y="1377" type="line" smooth="yes"/>
      <point x="198" y="1369"/>
      <point x="194" y="1360"/>
      <point x="194" y="1352" type="curve" smooth="yes"/>
      <point x="194" y="1334"/>
      <point x="212" y="1316"/>
      <point x="233" y="1295" type="curve" smooth="yes"/>
      <point x="260" y="1268" type="line"/>
      <point x="181" y="1177"/>
      <point x="140" y="1059"/>
      <point x="140" y="931" type="curve" smooth="yes"/>
      <point x="140" y="805"/>
      <point x="180" y="688"/>
      <point x="258" y="599" type="curve"/>
      <point x="233" y="574" type="line" smooth="yes"/>
      <point x="213" y="554"/>
      <point x="196" y="537"/>
      <point x="196" y="518" type="curve" smooth="yes"/>
      <point x="196" y="509"/>
      <point x="200" y="499"/>
      <point x="210" y="489" type="curve" smooth="yes"/>
      <point x="242" y="457" type="line" smooth="yes"/>
      <point x="250" y="448"/>
      <point x="259" y="445"/>
      <point x="267" y="445" type="curve" smooth="yes"/>
      <point x="285" y="445"/>
      <point x="303" y="463"/>
      <point x="324" y="484" type="curve" smooth="yes"/>
      <point x="355" y="515" type="line"/>
      <point x="440" y="459"/>
      <point x="546" y="426"/>
    </contour>
    <contour>
      <point x="680" y="580" type="curve" smooth="yes"/>
      <point x="419" y="580"/>
      <point x="321" y="769"/>
      <point x="321" y="931" type="curve" smooth="yes"/>
      <point x="321" y="1102"/>
      <point x="419" y="1285"/>
      <point x="680" y="1285" type="curve" smooth="yes"/>
      <point x="940" y="1285"/>
      <point x="1038" y="1102"/>
      <point x="1038" y="931" type="curve" smooth="yes"/>
      <point x="1038" y="769"/>
      <point x="940" y="580"/>
    </contour>
  </outline>
</glyph>
<glyph name="brokenbar" format="1">
  <advance width="617"/>
  <unicode hex="00A6"/>
  <outline>
    <contour>
      <point x="234" y="-150" type="curve" smooth="yes"/>
      <point x="383" y="-150" type="line" smooth="yes"/>
      <point x="426" y="-150"/>
      <point x="457" y="-116"/>
      <point x="457" y="-73" type="curve" smooth="yes"/>
      <point x="457" y="509" type="line" smooth="yes"/>
      <point x="457" y="552"/>
      <point x="426" y="586"/>
      <point x="383" y="586" type="curve" smooth="yes"/>
      <point x="234" y="586" type="line" smooth="yes"/>
      <point x="191" y="586"/>
      <point x="160" y="552"/>
      <point x="160" y="509" type="curve" smooth="yes"/>
      <point x="160" y="-73" type="line" smooth="yes"/>
      <point x="160" y="-116"/>
      <point x="191" y="-150"/>
    </contour>
    <contour>
      <point x="234" y="819" type="curve" smooth="yes"/>
      <point x="383" y="819" type="line" smooth="yes"/>
      <point x="426" y="819"/>
      <point x="457" y="853"/>
      <point x="457" y="896" type="curve" smooth="yes"/>
      <point x="457" y="1478" type="line" smooth="yes"/>
      <point x="457" y="1521"/>
      <point x="426" y="1555"/>
      <point x="383" y="1555" type="curve" smooth="yes"/>
      <point x="234" y="1555" type="line" smooth="yes"/>
      <point x="191" y="1555"/>
      <point x="160" y="1521"/>
      <point x="160" y="1478" type="curve" smooth="yes"/>
      <point x="160" y="896" type="line" smooth="yes"/>
      <point x="160" y="853"/>
      <point x="191" y="819"/>
    </contour>
  </outline>
</glyph>
<glyph name="registered" format="1">
  <advance width="1906"/>
  <unicode hex="00AE"/>
  <outline>
    <contour>
      <point x="563" y="387" type="curve" smooth="yes"/>
      <point x="789" y="387" type="line" smooth="yes"/>
      <point x="807" y="387"/>
      <point x="821" y="403"/>
      <point x="821" y="422" type="curve" smooth="yes"/>
      <point x="821" y="602" type="line" smooth="yes"/>
      <point x="821" y="612"/>
      <point x="829" y="620"/>
      <point x="837" y="620" type="curve" smooth="yes"/>
      <point x="997" y="620" type="line" smooth="yes"/>
      <point x="1046" y="620"/>
      <point x="1060" y="620"/>
      <point x="1078" y="587" type="curve" smooth="yes"/>
      <point x="1100" y="548"/>
      <point x="1107" y="464"/>
      <point x="1114" y="418" type="curve"/>
      <point x="1119" y="394"/>
      <point x="1129" y="387"/>
      <point x="1155" y="387" type="curve" smooth="yes"/>
      <point x="1390" y="387" type="line" smooth="yes"/>
      <point x="1402" y="387"/>
      <point x="1407" y="397"/>
      <point x="1407" y="409" type="curve" smooth="yes"/>
      <point x="1407" y="419"/>
      <point x="1402" y="444"/>
      <point x="1399" y="472" type="curve" smooth="yes"/>
      <point x="1385" y="589"/>
      <point x="1350" y="668"/>
      <point x="1246" y="688" type="curve" smooth="yes"/>
      <point x="1245" y="688"/>
      <point x="1245" y="689"/>
      <point x="1245" y="690" type="curve" smooth="yes"/>
      <point x="1245" y="691"/>
      <point x="1245" y="692"/>
      <point x="1246" y="692" type="curve" smooth="yes"/>
      <point x="1336" y="705"/>
      <point x="1411" y="755"/>
      <point x="1411" y="853" type="curve" smooth="yes"/>
      <point x="1411" y="1047"/>
      <point x="1245" y="1049"/>
      <point x="1034" y="1049" type="curve" smooth="yes"/>
      <point x="563" y="1049" type="line" smooth="yes"/>
      <point x="545" y="1049"/>
      <point x="531" y="1034"/>
      <point x="531" y="1014" type="curve" smooth="yes"/>
      <point x="531" y="422" type="line" smooth="yes"/>
      <point x="531" y="403"/>
      <point x="545" y="387"/>
    </contour>
    <contour>
      <point x="837" y="756" type="line"/>
      <point x="829" y="756"/>
      <point x="821" y="764"/>
      <point x="821" y="773" type="curve" smooth="yes"/>
      <point x="821" y="866" type="line" smooth="yes"/>
      <point x="821" y="875"/>
      <point x="829" y="883"/>
      <point x="837" y="883" type="curve" smooth="yes"/>
      <point x="1004" y="883" type="line" smooth="yes"/>
      <point x="1052" y="883"/>
      <point x="1115" y="881"/>
      <point x="1115" y="818" type="curve" smooth="yes"/>
      <point x="1115" y="783"/>
      <point x="1085" y="756"/>
      <point x="1051" y="756" type="curve" smooth="yes"/>
    </contour>
    <contour>
      <point x="955" y="124" type="curve" smooth="yes"/>
      <point x="505" y="124"/>
      <point x="337" y="440"/>
      <point x="337" y="713" type="curve" smooth="yes"/>
      <point x="337" y="998"/>
      <point x="505" y="1307"/>
      <point x="955" y="1307" type="curve" smooth="yes"/>
      <point x="1404" y="1307"/>
      <point x="1572" y="998"/>
      <point x="1572" y="713" type="curve" smooth="yes"/>
      <point x="1572" y="440"/>
      <point x="1404" y="124"/>
    </contour>
    <contour>
      <point x="952" y="-41" type="curve" smooth="yes"/>
      <point x="1496" y="-41"/>
      <point x="1768" y="318"/>
      <point x="1768" y="717" type="curve" smooth="yes"/>
      <point x="1768" y="1116"/>
      <point x="1496" y="1475"/>
      <point x="952" y="1475" type="curve" smooth="yes"/>
      <point x="408" y="1475"/>
      <point x="136" y="1116"/>
      <point x="136" y="717" type="curve" smooth="yes"/>
      <point x="136" y="318"/>
      <point x="408" y="-41"/>
    </contour>
  </outline>
</glyph>
<glyph name="degree" format="1">
  <advance width="1352"/>
  <unicode hex="00B0"/>
  <outline>
    <contour>
      <point x="674" y="519" type="curve" smooth="yes"/>
      <point x="413" y="519"/>
      <point x="316" y="707"/>
      <point x="316" y="870" type="curve" smooth="yes"/>
      <point x="316" y="1041"/>
      <point x="413" y="1224"/>
      <point x="674" y="1224" type="curve" smooth="yes"/>
      <point x="934" y="1224"/>
      <point x="1033" y="1041"/>
      <point x="1033" y="870" type="curve" smooth="yes"/>
      <point x="1033" y="707"/>
      <point x="934" y="519"/>
    </contour>
    <contour>
      <point x="674" y="362" type="curve" smooth="yes"/>
      <point x="1028" y="362"/>
      <point x="1216" y="596"/>
      <point x="1216" y="870" type="curve" smooth="yes"/>
      <point x="1216" y="1145"/>
      <point x="1028" y="1381"/>
      <point x="674" y="1381" type="curve" smooth="yes"/>
      <point x="320" y="1381"/>
      <point x="132" y="1145"/>
      <point x="132" y="870" type="curve" smooth="yes"/>
      <point x="132" y="596"/>
      <point x="320" y="362"/>
    </contour>
  </outline>
</glyph>
<glyph name="acute" format="1">
  <advance width="1745"/>
  <unicode hex="00B4"/>
  <outline>
    <contour>
      <point x="873" y="1006" type="move" name="_top"/>
    </contour>
    <contour>
      <point x="1046" y="1170" type="curve" smooth="yes"/>
      <point x="1177" y="1170" type="line" smooth="yes"/>
      <point x="1211" y="1170"/>
      <point x="1220" y="1189"/>
      <point x="1232" y="1209" type="curve" smooth="yes"/>
      <point x="1421" y="1553" type="line" smooth="yes"/>
      <point x="1428" y="1565"/>
      <point x="1433" y="1579"/>
      <point x="1433" y="1590" type="curve" smooth="yes"/>
      <point x="1433" y="1606"/>
      <point x="1425" y="1618"/>
      <point x="1405" y="1618" type="curve" smooth="yes"/>
      <point x="1145" y="1618" type="line" smooth="yes"/>
      <point x="1101" y="1618"/>
      <point x="1083" y="1606"/>
      <point x="1075" y="1563" type="curve" smooth="yes"/>
      <point x="1012" y="1237" type="line"/>
      <point x="1001" y="1188"/>
      <point x="1008" y="1170"/>
    </contour>
  </outline>
</glyph>
<glyph name="cedilla" format="1">
  <advance width="716"/>
  <unicode hex="00B8"/>
  <outline>
    <contour>
      <point x="419" y="0" type="move" name="_bottom"/>
    </contour>
    <contour>
      <point x="403" y="-642" type="curve" smooth="yes"/>
      <point x="547" y="-642"/>
      <point x="654" y="-569"/>
      <point x="654" y="-391" type="curve" smooth="yes"/>
      <point x="654" y="-280"/>
      <point x="573" y="-156"/>
      <point x="465" y="-156" type="curve" smooth="yes"/>
      <point x="363" y="-156" type="line" smooth="yes"/>
      <point x="350" y="-156"/>
      <point x="347" y="-163"/>
      <point x="347" y="-173" type="curve" smooth="yes"/>
      <point x="347" y="-244" type="line" smooth="yes"/>
      <point x="347" y="-255"/>
      <point x="363" y="-254"/>
      <point x="363" y="-254" type="curve"/>
      <point x="402" y="-254" type="line" smooth="yes"/>
      <point x="452" y="-254"/>
      <point x="483" y="-331"/>
      <point x="483" y="-407" type="curve" smooth="yes"/>
      <point x="483" y="-499"/>
      <point x="457" y="-532"/>
      <point x="410" y="-532" type="curve" smooth="yes"/>
      <point x="360" y="-532"/>
      <point x="338" y="-493"/>
      <point x="338" y="-451" type="curve" smooth="yes"/>
      <point x="338" y="-434"/>
      <point x="340" y="-427"/>
      <point x="343" y="-409" type="curve" smooth="yes"/>
      <point x="346" y="-389"/>
      <point x="333" y="-373"/>
      <point x="312" y="-373" type="curve" smooth="yes"/>
      <point x="235" y="-373" type="line" smooth="yes"/>
      <point x="216" y="-373"/>
      <point x="195" y="-389"/>
      <point x="191" y="-408" type="curve" smooth="yes"/>
      <point x="187" y="-427"/>
      <point x="185" y="-446"/>
      <point x="185" y="-464" type="curve" smooth="yes"/>
      <point x="185" y="-572"/>
      <point x="289" y="-642"/>
    </contour>
  </outline>
</glyph>
<glyph name="ordmasculine" format="1">
  <advance width="2063"/>
  <unicode hex="00BA"/>
  <outline>
    <contour>
      <point x="750" y="762" type="curve" smooth="yes"/>
      <point x="579" y="762"/>
      <point x="476" y="841"/>
      <point x="476" y="1011" type="curve" smooth="yes"/>
      <point x="476" y="1158"/>
      <point x="577" y="1258"/>
      <point x="750" y="1258" type="curve" smooth="yes"/>
      <point x="922" y="1258"/>
      <point x="1024" y="1158"/>
      <point x="1024" y="1011" type="curve" smooth="yes"/>
      <point x="1024" y="841"/>
      <point x="919" y="762"/>
    </contour>
    <contour>
      <point x="750" y="545" type="curve" smooth="yes"/>
      <point x="1065" y="545"/>
      <point x="1488" y="593"/>
      <point x="1488" y="1011" type="curve" smooth="yes"/>
      <point x="1488" y="1422"/>
      <point x="1044" y="1474"/>
      <point x="750" y="1474" type="curve" smooth="yes"/>
      <point x="455" y="1474"/>
      <point x="11" y="1422"/>
      <point x="11" y="1011" type="curve" smooth="yes"/>
      <point x="11" y="593"/>
      <point x="434" y="545"/>
    </contour>
  </outline>
</glyph>
<glyph name="onequarter" format="1">
  <advance width="3252"/>
  <unicode hex="00BC"/>
  <outline>
    <contour>
      <point x="2647" y="-106" type="curve" smooth="yes"/>
      <point x="2870" y="-105" type="line" smooth="yes"/>
      <point x="2900" y="-105"/>
      <point x="2922" y="-83"/>
      <point x="2922" y="-53" type="curve" smooth="yes"/>
      <point x="2922" y="120" type="line"/>
      <point x="3036" y="120" type="line" smooth="yes"/>
      <point x="3067" y="120"/>
      <point x="3089" y="143"/>
      <point x="3089" y="173" type="curve" smooth="yes"/>
      <point x="3089" y="319" type="line" smooth="yes"/>
      <point x="3089" y="349"/>
      <point x="3067" y="372"/>
      <point x="3036" y="372" type="curve" smooth="yes"/>
      <point x="2922" y="372" type="line"/>
      <point x="2922" y="954" type="line" smooth="yes"/>
      <point x="2922" y="984"/>
      <point x="2900" y="1007"/>
      <point x="2870" y="1007" type="curve" smooth="yes"/>
      <point x="2647" y="1007" type="line" smooth="yes"/>
      <point x="2617" y="1007"/>
      <point x="2594" y="984"/>
      <point x="2594" y="954" type="curve" smooth="yes"/>
      <point x="2594" y="372" type="line"/>
      <point x="2365" y="372" type="line" smooth="yes"/>
      <point x="2352" y="372"/>
      <point x="2340" y="382"/>
      <point x="2340" y="394" type="curve" smooth="yes"/>
      <point x="2340" y="394"/>
      <point x="2340" y="396"/>
      <point x="2340" y="397" type="curve"/>
      <point x="2465" y="953" type="line"/>
      <point x="2465" y="956"/>
      <point x="2466" y="958"/>
      <point x="2466" y="961" type="curve" smooth="yes"/>
      <point x="2466" y="987"/>
      <point x="2440" y="1007"/>
      <point x="2412" y="1007" type="curve" smooth="yes"/>
      <point x="2097" y="1007" type="line" smooth="yes"/>
      <point x="2067" y="1007"/>
      <point x="2051" y="983"/>
      <point x="2044" y="954" type="curve" smooth="yes"/>
      <point x="1817" y="173" type="line" smooth="yes"/>
      <point x="1817" y="170"/>
      <point x="1816" y="167"/>
      <point x="1816" y="164" type="curve" smooth="yes"/>
      <point x="1816" y="139"/>
      <point x="1843" y="120"/>
      <point x="1870" y="120" type="curve" smooth="yes"/>
      <point x="2594" y="120" type="line"/>
      <point x="2594" y="-53" type="line" smooth="yes"/>
      <point x="2594" y="-83"/>
      <point x="2617" y="-106"/>
    </contour>
    <contour>
      <point x="414" y="449" type="curve" smooth="yes"/>
      <point x="423" y="449"/>
      <point x="740" y="455"/>
      <point x="740" y="464" type="curve" smooth="yes"/>
      <point x="761" y="464"/>
      <point x="778" y="755"/>
      <point x="778" y="776" type="curve" smooth="yes"/>
      <point x="778" y="785"/>
      <point x="772" y="1429"/>
      <point x="763" y="1429" type="curve" smooth="yes"/>
      <point x="763" y="1451"/>
      <point x="597" y="1453"/>
      <point x="576" y="1453" type="curve"/>
      <point x="567" y="1453"/>
      <point x="95" y="1405"/>
      <point x="95" y="1396" type="curve"/>
      <point x="74" y="1396"/>
      <point x="57" y="1351"/>
      <point x="57" y="1330" type="curve" smooth="yes"/>
      <point x="57" y="1321"/>
      <point x="63" y="1201"/>
      <point x="72" y="1201" type="curve" smooth="yes"/>
      <point x="72" y="1180"/>
      <point x="139" y="1168"/>
      <point x="160" y="1168" type="curve"/>
      <point x="164" y="1168"/>
      <point x="266" y="1174"/>
      <point x="266" y="1170" type="curve"/>
      <point x="276" y="1170"/>
      <point x="284" y="947"/>
      <point x="284" y="937" type="curve" smooth="yes"/>
      <point x="284" y="928"/>
      <point x="290" y="488"/>
      <point x="299" y="488" type="curve" smooth="yes"/>
      <point x="299" y="466"/>
      <point x="393" y="449"/>
    </contour>
    <contour>
      <point x="1080" y="-207" type="curve"/>
      <point x="1099" y="-207"/>
      <point x="1137" y="-196"/>
      <point x="1145" y="-179" type="curve" smooth="yes"/>
      <point x="1151" y="-179"/>
      <point x="2036" y="1619"/>
      <point x="2030" y="1619" type="curve" smooth="yes"/>
      <point x="2036" y="1630"/>
      <point x="2011" y="1644"/>
      <point x="1984" y="1645" type="curve" smooth="yes"/>
      <point x="1973" y="1646"/>
      <point x="1731" y="1646"/>
      <point x="1730" y="1646" type="curve" smooth="yes"/>
      <point x="1711" y="1646"/>
      <point x="1674" y="1636"/>
      <point x="1666" y="1619" type="curve" smooth="yes"/>
      <point x="1660" y="1619"/>
      <point x="774" y="-178"/>
      <point x="781" y="-178" type="curve" smooth="yes"/>
      <point x="774" y="-189"/>
      <point x="795" y="-203"/>
      <point x="820" y="-204" type="curve" smooth="yes"/>
      <point x="833" y="-205"/>
      <point x="1079" y="-207"/>
    </contour>
  </outline>
</glyph>
<glyph name="ae" format="1">
  <advance width="3007"/>
  <unicode hex="00E6"/>
  <outline>
    <contour>
      <point x="1504" y="1006" type="move" name="top"/>
    </contour>
    <contour>
      <point x="2149" y="-41" type="curve" smooth="yes"/>
      <point x="2283" y="-41"/>
      <point x="2598" y="0"/>
      <point x="2749" y="49" type="curve"/>
      <point x="2787" y="61"/>
      <point x="2808" y="102"/>
      <point x="2796" y="137" type="curve" smooth="yes"/>
      <point x="2784" y="173"/>
      <point x="2778" y="197"/>
      <point x="2765" y="233" type="curve" smooth="yes"/>
      <point x="2753" y="271"/>
      <point x="2714" y="290"/>
      <point x="2672" y="277" type="curve" smooth="yes"/>
      <point x="2567" y="245"/>
      <point x="2404" y="209"/>
      <point x="2257" y="209" type="curve" smooth="yes"/>
      <point x="2057" y="209"/>
      <point x="1812" y="270"/>
      <point x="1812" y="426" type="curve" smooth="yes"/>
      <point x="1812" y="441"/>
      <point x="1820" y="454"/>
      <point x="1835" y="454" type="curve" smooth="yes"/>
      <point x="2821" y="454" type="line" smooth="yes"/>
      <point x="2853" y="454"/>
      <point x="2870" y="474"/>
      <point x="2872" y="495" type="curve" smooth="yes"/>
      <point x="2873" y="505"/>
      <point x="2874" y="521"/>
      <point x="2874" y="533" type="curve" smooth="yes"/>
      <point x="2866" y="918"/>
      <point x="2457" y="1053"/>
      <point x="2091" y="1053" type="curve" smooth="yes"/>
      <point x="1901" y="1053"/>
      <point x="1684" y="1002"/>
      <point x="1520" y="906" type="curve"/>
      <point x="1398" y="1003"/>
      <point x="1211" y="1053"/>
      <point x="957" y="1053" type="curve" smooth="yes"/>
      <point x="483" y="1053"/>
      <point x="236" y="990"/>
      <point x="177" y="846" type="curve" smooth="yes"/>
      <point x="172" y="833"/>
      <point x="166" y="817"/>
      <point x="166" y="802" type="curve" smooth="yes"/>
      <point x="166" y="787"/>
      <point x="178" y="769"/>
      <point x="194" y="766" type="curve"/>
      <point x="578" y="731" type="line" smooth="yes"/>
      <point x="587" y="730"/>
      <point x="594" y="729"/>
      <point x="600" y="729" type="curve" smooth="yes"/>
      <point x="621" y="729"/>
      <point x="636" y="737"/>
      <point x="659" y="758" type="curve" smooth="yes"/>
      <point x="736" y="827"/>
      <point x="877" y="849"/>
      <point x="961" y="849" type="curve" smooth="yes"/>
      <point x="1181" y="849"/>
      <point x="1249" y="772"/>
      <point x="1249" y="661" type="curve" smooth="yes"/>
      <point x="1249" y="658"/>
      <point x="1248" y="644"/>
      <point x="1248" y="639" type="curve" smooth="yes"/>
      <point x="1248" y="596"/>
      <point x="139" y="650"/>
      <point x="139" y="238" type="curve" smooth="yes"/>
      <point x="139" y="62"/>
      <point x="374" y="-41"/>
      <point x="736" y="-41" type="curve" smooth="yes"/>
      <point x="1036" y="-41"/>
      <point x="1252" y="31"/>
      <point x="1384" y="145" type="curve" smooth="yes"/>
      <point x="1397" y="156"/>
      <point x="1409" y="166"/>
      <point x="1419" y="176" type="curve"/>
      <point x="1428" y="169"/>
      <point x="1437" y="162"/>
      <point x="1446" y="156" type="curve" smooth="yes"/>
      <point x="1626" y="8"/>
      <point x="1910" y="-41"/>
    </contour>
    <contour>
      <point x="842" y="174" type="curve" smooth="yes"/>
      <point x="734" y="174"/>
      <point x="681" y="210"/>
      <point x="681" y="271" type="curve" smooth="yes"/>
      <point x="681" y="369"/>
      <point x="887" y="414"/>
      <point x="1205" y="454" type="curve" smooth="yes"/>
      <point x="1210" y="455"/>
      <point x="1230" y="456"/>
      <point x="1233" y="456" type="curve" smooth="yes"/>
      <point x="1260" y="456"/>
      <point x="1261" y="438"/>
      <point x="1261" y="424" type="curve" smooth="yes"/>
      <point x="1261" y="289"/>
      <point x="1069" y="174"/>
    </contour>
    <contour>
      <point x="1824" y="611" type="line"/>
      <point x="1812" y="611"/>
      <point x="1813" y="628"/>
      <point x="1813" y="641" type="curve" smooth="yes"/>
      <point x="1823" y="750"/>
      <point x="1949" y="835"/>
      <point x="2100" y="835" type="curve" smooth="yes"/>
      <point x="2267" y="835"/>
      <point x="2363" y="743"/>
      <point x="2378" y="636" type="curve"/>
      <point x="2378" y="624"/>
      <point x="2379" y="611"/>
      <point x="2367" y="611" type="curve" smooth="yes"/>
    </contour>
  </outline>
</glyph>
<glyph name="eth" format="1">
  <advance width="2057"/>
  <unicode hex="00F0"/>
  <outline>
    <contour>
      <point x="1011" y="-40" type="curve" smooth="yes"/>
      <point x="1621" y="-40"/>
      <point x="1921" y="182"/>
      <point x="1921" y="613" type="curve" smooth="yes"/>
      <point x="1921" y="936"/>
      <point x="1653" y="1189"/>
      <point x="1263" y="1358" type="curve"/>
      <point x="1294" y="1391"/>
      <point x="1339" y="1441"/>
      <point x="1367" y="1470" type="curve" smooth="yes"/>
      <point x="1377" y="1480"/>
      <point x="1381" y="1493"/>
      <point x="1381" y="1505" type="curve" smooth="yes"/>
      <point x="1381" y="1518"/>
      <point x="1377" y="1531"/>
      <point x="1367" y="1541" type="curve" smooth="yes"/>
      <point x="1366" y="1541"/>
      <point x="1357" y="1550"/>
      <point x="1307" y="1598" type="curve" smooth="yes"/>
      <point x="1297" y="1608"/>
      <point x="1284" y="1613"/>
      <point x="1271" y="1613" type="curve" smooth="yes"/>
      <point x="1257" y="1613"/>
      <point x="1244" y="1608"/>
      <point x="1234" y="1597" type="curve" smooth="yes"/>
      <point x="1198" y="1560"/>
      <point x="1127" y="1483"/>
      <point x="1077" y="1429" type="curve"/>
      <point x="990" y="1459"/>
      <point x="898" y="1486"/>
      <point x="806" y="1508" type="curve" smooth="yes"/>
      <point x="796" y="1511"/>
      <point x="786" y="1512"/>
      <point x="778" y="1512" type="curve" smooth="yes"/>
      <point x="754" y="1512"/>
      <point x="741" y="1502"/>
      <point x="729" y="1477" type="curve" smooth="yes"/>
      <point x="665" y="1337" type="line" smooth="yes"/>
      <point x="661" y="1328"/>
      <point x="659" y="1317"/>
      <point x="659" y="1310" type="curve" smooth="yes"/>
      <point x="659" y="1294"/>
      <point x="667" y="1283"/>
      <point x="681" y="1277" type="curve" smooth="yes"/>
      <point x="750" y="1253"/>
      <point x="814" y="1229"/>
      <point x="872" y="1205" type="curve"/>
      <point x="844" y="1175"/>
      <point x="796" y="1123"/>
      <point x="773" y="1100" type="curve" smooth="yes"/>
      <point x="763" y="1090"/>
      <point x="758" y="1077"/>
      <point x="758" y="1064" type="curve" smooth="yes"/>
      <point x="758" y="1053"/>
      <point x="763" y="1039"/>
      <point x="771" y="1030" type="curve" smooth="yes"/>
      <point x="832" y="973" type="line" smooth="yes"/>
      <point x="842" y="963"/>
      <point x="855" y="958"/>
      <point x="868" y="958" type="curve" smooth="yes"/>
      <point x="882" y="958"/>
      <point x="895" y="963"/>
      <point x="905" y="974" type="curve" smooth="yes"/>
      <point x="948" y="1019"/>
      <point x="1015" y="1088"/>
      <point x="1048" y="1123" type="curve"/>
      <point x="1241" y="1021"/>
      <point x="1325" y="923"/>
      <point x="1367" y="811" type="curve"/>
      <point x="1271" y="874"/>
      <point x="1055" y="903"/>
      <point x="893" y="903" type="curve" smooth="yes"/>
      <point x="391" y="903"/>
      <point x="131" y="721"/>
      <point x="131" y="444" type="curve" smooth="yes"/>
      <point x="131" y="110"/>
      <point x="428" y="-40"/>
    </contour>
    <contour>
      <point x="1023" y="249" type="curve" smooth="yes"/>
      <point x="820" y="249"/>
      <point x="675" y="290"/>
      <point x="675" y="462" type="curve" smooth="yes"/>
      <point x="675" y="611"/>
      <point x="761" y="683"/>
      <point x="1001" y="683" type="curve" smooth="yes"/>
      <point x="1196" y="683"/>
      <point x="1371" y="618"/>
      <point x="1371" y="478" type="curve" smooth="yes"/>
      <point x="1371" y="296"/>
      <point x="1225" y="249"/>
    </contour>
  </outline>
</glyph>
<glyph name="dotlessi" format="1">
  <advance width="856"/>
  <unicode hex="0131"/>
  <outline>
    <contour>
      <point x="428" y="1006" type="move" name="top"/>
    </contour>
    <contour>
      <point x="770" y="10" type="move" name="ogonek"/>
    </contour>
    <contour>
      <point x="229" y="0" type="curve" smooth="yes"/>
      <point x="627" y="0" type="line" smooth="yes"/>
      <point x="670" y="0"/>
      <point x="702" y="33"/>
      <point x="702" y="76" type="curve" smooth="yes"/>
      <point x="702" y="931" type="line" smooth="yes"/>
      <point x="702" y="974"/>
      <point x="670" y="1006"/>
      <point x="627" y="1006" type="curve" smooth="yes"/>
      <point x="229" y="1006" type="line" smooth="yes"/>
      <point x="186" y="1006"/>
      <point x="153" y="974"/>
      <point x="153" y="931" type="curve" smooth="yes"/>
      <point x="153" y="76" type="line" smooth="yes"/>
      <point x="153" y="33"/>
      <point x="186" y="0"/>
    </contour>
  </outline>
</glyph>
<glyph name="oe" format="1">
  <advance width="3245"/>
  <unicode hex="0153"/>
  <outline>
    <contour>
      <point x="1623" y="1006" type="move" name="top"/>
    </contour>
    <contour>
      <point x="2165" y="-41" type="curve" smooth="yes"/>
      <point x="2305" y="-41"/>
      <point x="2617" y="1"/>
      <point x="2768" y="50" type="curve"/>
      <point x="2808" y="63"/>
      <point x="2826" y="105"/>
      <point x="2813" y="141" type="curve" smooth="yes"/>
      <point x="2800" y="180"/>
      <point x="2795" y="196"/>
      <point x="2783" y="232" type="curve" smooth="yes"/>
      <point x="2770" y="270"/>
      <point x="2733" y="288"/>
      <point x="2691" y="275" type="curve" smooth="yes"/>
      <point x="2586" y="243"/>
      <point x="2434" y="210"/>
      <point x="2274" y="210" type="curve" smooth="yes"/>
      <point x="2074" y="210"/>
      <point x="1829" y="262"/>
      <point x="1829" y="419" type="curve" smooth="yes"/>
      <point x="1829" y="434"/>
      <point x="1838" y="449"/>
      <point x="1853" y="449" type="curve" smooth="yes"/>
      <point x="2824" y="449" type="line" smooth="yes"/>
      <point x="2863" y="449"/>
      <point x="2885" y="469"/>
      <point x="2888" y="490" type="curve"/>
      <point x="2890" y="500"/>
      <point x="2892" y="521"/>
      <point x="2892" y="533" type="curve" smooth="yes"/>
      <point x="2884" y="918"/>
      <point x="2475" y="1053"/>
      <point x="2109" y="1053" type="curve" smooth="yes"/>
      <point x="1932" y="1053"/>
      <point x="1737" y="1025"/>
      <point x="1591" y="933" type="curve"/>
      <point x="1421" y="1033"/>
      <point x="1190" y="1053"/>
      <point x="1009" y="1053" type="curve" smooth="yes"/>
      <point x="662" y="1053"/>
      <point x="140" y="992"/>
      <point x="140" y="507" type="curve" smooth="yes"/>
      <point x="140" y="16"/>
      <point x="637" y="-41"/>
      <point x="1009" y="-41" type="curve" smooth="yes"/>
      <point x="1205" y="-41"/>
      <point x="1437" y="-23"/>
      <point x="1603" y="80" type="curve"/>
      <point x="1763" y="-16"/>
      <point x="1980" y="-41"/>
    </contour>
    <contour>
      <point x="1842" y="615" type="line"/>
      <point x="1830" y="615"/>
      <point x="1831" y="631"/>
      <point x="1831" y="644" type="curve" smooth="yes"/>
      <point x="1841" y="753"/>
      <point x="1967" y="835"/>
      <point x="2118" y="835" type="curve" smooth="yes"/>
      <point x="2285" y="835"/>
      <point x="2381" y="747"/>
      <point x="2396" y="639" type="curve"/>
      <point x="2396" y="628"/>
      <point x="2397" y="615"/>
      <point x="2385" y="615" type="curve" smooth="yes"/>
    </contour>
    <contour>
      <point x="1009" y="215" type="curve" smooth="yes"/>
      <point x="808" y="215"/>
      <point x="686" y="308"/>
      <point x="686" y="507" type="curve" smooth="yes"/>
      <point x="686" y="681"/>
      <point x="805" y="798"/>
      <point x="1009" y="798" type="curve" smooth="yes"/>
      <point x="1212" y="798"/>
      <point x="1331" y="681"/>
      <point x="1331" y="507" type="curve" smooth="yes"/>
      <point x="1331" y="308"/>
      <point x="1209" y="215"/>
    </contour>
  </outline>
</glyph>
<glyph name="dotlessj" format="1">
  <advance width="1180"/>
  <unicode hex="0237"/>
  <outline>
    <contour>
      <point x="590" y="1006" type="move" name="top"/>
    </contour>
    <contour>
      <point x="466" y="-441" type="curve"/>
      <point x="760" y="-419"/>
      <point x="1019" y="-305"/>
      <point x="1020" y="11" type="curve" smooth="yes"/>
      <point x="1020" y="931" type="line" smooth="yes"/>
      <point x="1020" y="974"/>
      <point x="987" y="1006"/>
      <point x="944" y="1006" type="curve" smooth="yes"/>
      <point x="545" y="1006" type="line" smooth="yes"/>
      <point x="502" y="1006"/>
      <point x="469" y="974"/>
      <point x="469" y="931" type="curve" smooth="yes"/>
      <point x="469" y="14" type="line" smooth="yes"/>
      <point x="469" y="-110"/>
      <point x="368" y="-146"/>
      <point x="250" y="-146" type="curve" smooth="yes"/>
      <point x="215" y="-146"/>
      <point x="163" y="-143"/>
      <point x="133" y="-140" type="curve" smooth="yes"/>
      <point x="92" y="-135"/>
      <point x="60" y="-165"/>
      <point x="60" y="-206" type="curve" smooth="yes"/>
      <point x="60" y="-344" type="line" smooth="yes"/>
      <point x="60" y="-388"/>
      <point x="91" y="-424"/>
      <point x="134" y="-429" type="curve" smooth="yes"/>
      <point x="226" y="-441"/>
      <point x="355" y="-452"/>
    </contour>
  </outline>
</glyph>
<glyph name="uni0311" format="1">
  <advance width="1366"/>
  <unicode hex="0311"/>
  <outline>
    <contour>
      <point x="182" y="1192" type="curve"/>
      <point x="432" y="1192" type="line"/>
      <point x="434" y="1298"/>
      <point x="480" y="1346"/>
      <point x="560" y="1346" type="curve" smooth="yes"/>
      <point x="641" y="1346"/>
      <point x="688" y="1297"/>
      <point x="690" y="1192" type="curve"/>
      <point x="940" y="1192" type="line"/>
      <point x="937" y="1474"/>
      <point x="726" y="1506"/>
      <point x="560" y="1506" type="curve" smooth="yes"/>
      <point x="395" y="1506"/>
      <point x="185" y="1474"/>
    </contour>
  </outline>
</glyph>
<glyph name="endash" format="1">
  <advance width="1024"/>
  <unicode hex="2013"/>
  <outline>
    <contour>
      <point x="185" y="422" type="curve" smooth="yes"/>
      <point x="846" y="422" type="line" smooth="yes"/>
      <point x="882" y="422"/>
      <point x="912" y="453"/>
      <point x="912" y="492" type="curve" smooth="yes"/>
      <point x="912" y="680" type="line" smooth="yes"/>
      <point x="912" y="718"/>
      <point x="882" y="748"/>
      <point x="846" y="748" type="curve" smooth="yes"/>
      <point x="185" y="748" type="line" smooth="yes"/>
      <point x="149" y="748"/>
      <point x="120" y="717"/>
      <point x="120" y="678" type="curve" smooth="yes"/>
      <point x="120" y="493" type="line" smooth="yes"/>
      <point x="120" y="454"/>
      <point x="149" y="422"/>
    </contour>
  </outline>
</glyph>
<glyph name="quotedblleft" format="1">
  <advance width="1059"/>
  <unicode hex="201C"/>
  <outline>
    <contour>
      <point x="210" y="801" type="curve" smooth="yes"/>
      <point x="472" y="801" type="line" smooth="yes"/>
      <point x="515" y="801"/>
      <point x="532" y="833"/>
      <point x="532" y="876" type="curve" smooth="yes"/>
      <point x="532" y="1079" type="line" smooth="yes"/>
      <point x="532" y="1117"/>
      <point x="510" y="1146"/>
      <point x="472" y="1146" type="curve" smooth="yes"/>
      <point x="395" y="1146" type="line" smooth="yes"/>
      <point x="380" y="1146"/>
      <point x="378" y="1157"/>
      <point x="378" y="1173" type="curve" smooth="yes"/>
      <point x="378" y="1197"/>
      <point x="393" y="1274"/>
      <point x="462" y="1317" type="curve" smooth="yes"/>
      <point x="505" y="1344"/>
      <point x="532" y="1338"/>
      <point x="532" y="1392" type="curve" smooth="yes"/>
      <point x="532" y="1436" type="line" smooth="yes"/>
      <point x="532" y="1472"/>
      <point x="492" y="1487"/>
      <point x="457" y="1481" type="curve" smooth="yes"/>
      <point x="319" y="1458"/>
      <point x="145" y="1347"/>
      <point x="145" y="1110" type="curve" smooth="yes"/>
      <point x="145" y="878" type="line" smooth="yes"/>
      <point x="145" y="835"/>
      <point x="167" y="801"/>
    </contour>
    <contour>
      <point x="742" y="801" type="curve" smooth="yes"/>
      <point x="1004" y="801" type="line" smooth="yes"/>
      <point x="1047" y="801"/>
      <point x="1064" y="833"/>
      <point x="1064" y="876" type="curve" smooth="yes"/>
      <point x="1064" y="1079" type="line" smooth="yes"/>
      <point x="1064" y="1117"/>
      <point x="1042" y="1146"/>
      <point x="1004" y="1146" type="curve" smooth="yes"/>
      <point x="927" y="1146" type="line" smooth="yes"/>
      <point x="912" y="1146"/>
      <point x="910" y="1157"/>
      <point x="910" y="1173" type="curve" smooth="yes"/>
      <point x="910" y="1197"/>
      <point x="925" y="1274"/>
      <point x="994" y="1317" type="curve" smooth="yes"/>
      <point x="1037" y="1344"/>
      <point x="1064" y="1338"/>
      <point x="1064" y="1392" type="curve" smooth="yes"/>
      <point x="1064" y="1436" type="line" smooth="yes"/>
      <point x="1064" y="1472"/>
      <point x="1024" y="1487"/>
      <point x="989" y="1481" type="curve" smooth="yes"/>
      <point x="851" y="1458"/>
      <point x="677" y="1347"/>
      <point x="677" y="1110" type="curve" smooth="yes"/>
      <point x="677" y="878" type="line" smooth="yes"/>
      <point x="677" y="835"/>
      <point x="699" y="801"/>
    </contour>
  </outline>
</glyph>
<glyph name="daggerdbl" format="1">
  <advance width="1947"/>
  <unicode hex="2021"/>
  <outline>
    <contour>
      <point x="806" y="0" type="curve" smooth="yes"/>
      <point x="1139" y="0" type="line" smooth="yes"/>
      <point x="1182" y="0"/>
      <point x="1211" y="29"/>
      <point x="1211" y="72" type="curve" smooth="yes"/>
      <point x="1211" y="541" type="line"/>
      <point x="1578" y="541" type="line" smooth="yes"/>
      <point x="1621" y="541"/>
      <point x="1650" y="575"/>
      <point x="1650" y="618" type="curve" smooth="yes"/>
      <point x="1650" y="726" type="line" smooth="yes"/>
      <point x="1650" y="769"/>
      <point x="1621" y="803"/>
      <point x="1578" y="803" type="curve" smooth="yes"/>
      <point x="1211" y="803" type="line"/>
      <point x="1211" y="1243" type="line" smooth="yes"/>
      <point x="1211" y="1263"/>
      <point x="1223" y="1274"/>
      <point x="1243" y="1274" type="curve" smooth="yes"/>
      <point x="1578" y="1274" type="line" smooth="yes"/>
      <point x="1621" y="1274"/>
      <point x="1650" y="1308"/>
      <point x="1650" y="1351" type="curve" smooth="yes"/>
      <point x="1650" y="1459" type="line" smooth="yes"/>
      <point x="1650" y="1502"/>
      <point x="1621" y="1536"/>
      <point x="1578" y="1536" type="curve" smooth="yes"/>
      <point x="1212" y="1536" type="line"/>
      <point x="1212" y="1901" type="line" smooth="yes"/>
      <point x="1212" y="1944"/>
      <point x="1183" y="1973"/>
      <point x="1140" y="1973" type="curve" smooth="yes"/>
      <point x="807" y="1973" type="line" smooth="yes"/>
      <point x="764" y="1973"/>
      <point x="735" y="1944"/>
      <point x="735" y="1901" type="curve" smooth="yes"/>
      <point x="735" y="1536" type="line"/>
      <point x="365" y="1536" type="line" smooth="yes"/>
      <point x="322" y="1536"/>
      <point x="293" y="1502"/>
      <point x="293" y="1459" type="curve" smooth="yes"/>
      <point x="293" y="1351" type="line" smooth="yes"/>
      <point x="293" y="1308"/>
      <point x="322" y="1274"/>
      <point x="365" y="1274" type="curve" smooth="yes"/>
      <point x="702" y="1274" type="line" smooth="yes"/>
      <point x="722" y="1274"/>
      <point x="734" y="1263"/>
      <point x="734" y="1243" type="curve" smooth="yes"/>
      <point x="734" y="803" type="line"/>
      <point x="365" y="803" type="line" smooth="yes"/>
      <point x="322" y="803"/>
      <point x="293" y="769"/>
      <point x="293" y="726" type="curve" smooth="yes"/>
      <point x="293" y="618" type="line" smooth="yes"/>
      <point x="293" y="575"/>
      <point x="322" y="541"/>
      <point x="365" y="541" type="curve" smooth="yes"/>
      <point x="734" y="541" type="line"/>
      <point x="734" y="72" type="line" smooth="yes"/>
      <point x="734" y="29"/>
      <point x="763" y="0"/>
    </contour>
  </outline>
</glyph>
<glyph name="fraction" format="1">
  <advance width="1405"/>
  <unicode hex="2044"/>
  <outline>
    <contour>
      <point x="111" y="-204" type="curve" smooth="yes"/>
      <point x="124" y="-205"/>
      <point x="394" y="-206"/>
      <point x="396" y="-206" type="curve" smooth="yes"/>
      <point x="427" y="-206"/>
      <point x="446" y="-188"/>
      <point x="455" y="-171" type="curve" smooth="yes"/>
      <point x="1322" y="1594" type="line" smooth="yes"/>
      <point x="1328" y="1606"/>
      <point x="1340" y="1647"/>
      <point x="1298" y="1647" type="curve" smooth="yes"/>
      <point x="1291" y="1647"/>
      <point x="1035" y="1647"/>
      <point x="1034" y="1647" type="curve" smooth="yes"/>
      <point x="1004" y="1647"/>
      <point x="979" y="1638"/>
      <point x="962" y="1605" type="curve" smooth="yes"/>
      <point x="87" y="-171" type="line" smooth="yes"/>
      <point x="81" y="-183"/>
      <point x="86" y="-203"/>
    </contour>
  </outline>
</glyph>
<glyph name="Euro" format="1">
  <advance width="2475"/>
  <unicode hex="20AC"/>
  <outline>
    <contour>
      <point x="1320" y="-41" type="curve" smooth="yes"/>
      <point x="1754" y="-41"/>
      <point x="2306" y="58"/>
      <point x="2332" y="435" type="curve" smooth="yes"/>
      <point x="2332" y="447"/>
      <point x="2330" y="461"/>
      <point x="2329" y="474" type="curve" smooth="yes"/>
      <point x="2325" y="496"/>
      <point x="2307" y="514"/>
      <point x="2284" y="516" type="curve" smooth="yes"/>
      <point x="2260" y="520"/>
      <point x="1843" y="555"/>
      <point x="1842" y="555" type="curve" smooth="yes"/>
      <point x="1789" y="559"/>
      <point x="1760" y="540"/>
      <point x="1737" y="494" type="curve"/>
      <point x="1679" y="386"/>
      <point x="1558" y="329"/>
      <point x="1320" y="329" type="curve"/>
      <point x="1051" y="334"/>
      <point x="864" y="418"/>
      <point x="864" y="719" type="curve" smooth="yes"/>
      <point x="864" y="1010"/>
      <point x="1049" y="1103"/>
      <point x="1320" y="1108" type="curve"/>
      <point x="1541" y="1108"/>
      <point x="1664" y="1058"/>
      <point x="1730" y="956" type="curve" smooth="yes"/>
      <point x="1760" y="910"/>
      <point x="1791" y="895"/>
      <point x="1844" y="899" type="curve" smooth="yes"/>
      <point x="1844" y="899"/>
      <point x="2280" y="929"/>
      <point x="2306" y="932" type="curve" smooth="yes"/>
      <point x="2312" y="934"/>
      <point x="2318" y="939"/>
      <point x="2319" y="945" type="curve" smooth="yes"/>
      <point x="2319" y="947"/>
      <point x="2318" y="958"/>
      <point x="2318" y="959" type="curve" smooth="yes"/>
      <point x="2271" y="1359"/>
      <point x="1768" y="1475"/>
      <point x="1320" y="1475" type="curve" smooth="yes"/>
      <point x="741" y="1475"/>
      <point x="135" y="1325"/>
      <point x="135" y="719" type="curve" smooth="yes"/>
      <point x="135" y="105"/>
      <point x="741" y="-41"/>
    </contour>
    <contour>
      <point x="60" y="494" type="curve" smooth="yes"/>
      <point x="1243" y="494" type="line" smooth="yes"/>
      <point x="1278" y="494"/>
      <point x="1303" y="522"/>
      <point x="1303" y="561" type="curve" smooth="yes"/>
      <point x="1303" y="599" type="line" smooth="yes"/>
      <point x="1303" y="638"/>
      <point x="1278" y="666"/>
      <point x="1243" y="666" type="curve" smooth="yes"/>
      <point x="60" y="666" type="line" smooth="yes"/>
      <point x="24" y="666"/>
      <point x="0" y="638"/>
      <point x="0" y="599" type="curve" smooth="yes"/>
      <point x="0" y="561" type="line" smooth="yes"/>
      <point x="0" y="522"/>
      <point x="24" y="494"/>
    </contour>
    <contour>
      <point x="60" y="756" type="curve" smooth="yes"/>
      <point x="1243" y="756" type="line" smooth="yes"/>
      <point x="1278" y="756"/>
      <point x="1303" y="784"/>
      <point x="1303" y="823" type="curve" smooth="yes"/>
      <point x="1303" y="863" type="line" smooth="yes"/>
      <point x="1303" y="902"/>
      <point x="1278" y="930"/>
      <point x="1243" y="930" type="curve" smooth="yes"/>
      <point x="60" y="930" type="line" smooth="yes"/>
      <point x="24" y="930"/>
      <point x="0" y="902"/>
      <point x="0" y="863" type="curve" smooth="yes"/>
      <point x="0" y="823" type="line" smooth="yes"/>
      <point x="0" y="784"/>
      <point x="24" y="756"/>
    </contour>
  </outline>
</glyph>
<glyph name="greaterequal" format="1">
  <advance width="1258"/>
  <unicode hex="2265"/>
  <outline>
    <contour>
      <point x="187" y="-2" type="curve" smooth="yes"/>
      <point x="196" y="-2"/>
      <point x="206" y="1"/>
      <point x="217" y="7" type="curve" smooth="yes"/>
      <point x="1058" y="399" type="line"/>
      <point x="1098" y="422"/>
      <point x="1125" y="461"/>
      <point x="1125" y="504" type="curve" smooth="yes"/>
      <point x="1125" y="767" type="line" smooth="yes"/>
      <point x="1125" y="811"/>
      <point x="1101" y="858"/>
      <point x="1058" y="877" type="curve" smooth="yes"/>
      <point x="216" y="1260" type="line" smooth="yes"/>
      <point x="203" y="1267"/>
      <point x="193" y="1272"/>
      <point x="184" y="1272" type="curve" smooth="yes"/>
      <point x="164" y="1272"/>
      <point x="149" y="1256"/>
      <point x="149" y="1230" type="curve" smooth="yes"/>
      <point x="149" y="998" type="line" smooth="yes"/>
      <point x="149" y="954"/>
      <point x="174" y="918"/>
      <point x="217" y="896" type="curve"/>
      <point x="822" y="665" type="line" smooth="yes"/>
      <point x="829" y="662"/>
      <point x="832" y="656"/>
      <point x="832" y="651" type="curve" smooth="yes"/>
      <point x="832" y="645"/>
      <point x="829" y="639"/>
      <point x="822" y="636" type="curve" smooth="yes"/>
      <point x="217" y="386" type="line" smooth="yes"/>
      <point x="175" y="365"/>
      <point x="149" y="334"/>
      <point x="149" y="290" type="curve" smooth="yes"/>
      <point x="149" y="42" type="line" smooth="yes"/>
      <point x="149" y="15"/>
      <point x="165" y="-2"/>
    </contour>
  </outline>
</glyph>
<glyph name="uniFB02" format="1">
  <advance width="2280"/>
  <unicode hex="FB02"/>
  <outline>
    <contour>
      <point x="444" y="0" type="curve" smooth="yes"/>
      <point x="864" y="0" type="line" smooth="yes"/>
      <point x="907" y="0"/>
      <point x="941" y="34"/>
      <point x="941" y="77" type="curve" smooth="yes"/>
      <point x="941" y="762" type="line" smooth="yes"/>
      <point x="941" y="782"/>
      <point x="944" y="799"/>
      <point x="964" y="799" type="curve" smooth="yes"/>
      <point x="1358" y="799" type="line" smooth="yes"/>
      <point x="1401" y="799"/>
      <point x="1425" y="808"/>
      <point x="1425" y="851" type="curve" smooth="yes"/>
      <point x="1425" y="951" type="line" smooth="yes"/>
      <point x="1425" y="994"/>
      <point x="1401" y="1006"/>
      <point x="1358" y="1006" type="curve" smooth="yes"/>
      <point x="948" y="1006" type="line" smooth="yes"/>
      <point x="944" y="1006"/>
      <point x="941" y="1010"/>
      <point x="941" y="1013" type="curve" smooth="yes"/>
      <point x="941" y="1062" type="line" smooth="yes"/>
      <point x="941" y="1158"/>
      <point x="1064" y="1199"/>
      <point x="1275" y="1199" type="curve" smooth="yes"/>
      <point x="1359" y="1199"/>
      <point x="1516" y="1187"/>
      <point x="1571" y="1183" type="curve"/>
      <point x="1571" y="76" type="line" smooth="yes"/>
      <point x="1571" y="33"/>
      <point x="1604" y="0"/>
      <point x="1647" y="0" type="curve" smooth="yes"/>
      <point x="2045" y="0" type="line" smooth="yes"/>
      <point x="2088" y="0"/>
      <point x="2120" y="33"/>
      <point x="2120" y="76" type="curve" smooth="yes"/>
      <point x="2120" y="1313" type="line" smooth="yes"/>
      <point x="2120" y="1356"/>
      <point x="2089" y="1381"/>
      <point x="2045" y="1389" type="curve" smooth="yes"/>
      <point x="1734" y="1442"/>
      <point x="1450" y="1475"/>
      <point x="1100" y="1475" type="curve" smooth="yes"/>
      <point x="739" y="1475"/>
      <point x="391" y="1367"/>
      <point x="368" y="1044" type="curve" smooth="yes"/>
      <point x="367" y="1022"/>
      <point x="367" y="1006"/>
      <point x="345" y="1006" type="curve" smooth="yes"/>
      <point x="195" y="1006" type="line" smooth="yes"/>
      <point x="152" y="1006"/>
      <point x="128" y="988"/>
      <point x="128" y="945" type="curve" smooth="yes"/>
      <point x="128" y="851" type="line" smooth="yes"/>
      <point x="128" y="808"/>
      <point x="152" y="799"/>
      <point x="195" y="799" type="curve" smooth="yes"/>
      <point x="347" y="799" type="line" smooth="yes"/>
      <point x="367" y="799"/>
      <point x="367" y="782"/>
      <point x="367" y="762" type="curve" smooth="yes"/>
      <point x="367" y="77" type="line" smooth="yes"/>
      <point x="367" y="34"/>
      <point x="401" y="0"/>
    </contour>
  </outline>
</glyph>
